<svg width="85" height="85" viewBox="0 0 85 85" fill="none" xmlns="http://www.w3.org/2000/svg">
<path d="M41.5138 5.44043C41.3876 5.44043 41.3876 5.44043 41.2615 5.5666C41.2631 5.44043 41.3876 5.44043 41.5138 5.44043Z" fill="#34D399"/>
<path d="M41.5139 5.81047C41.5139 5.6843 41.6401 5.81047 41.7663 5.81047C41.7663 5.94494 41.6401 5.81047 41.5139 5.81047Z" fill="#34D399"/>
<path d="M41.3877 5.81059L41.2615 5.93676C41.2611 5.92007 41.264 5.90346 41.2702 5.88794C41.2764 5.87243 41.2857 5.85834 41.2975 5.84653C41.3093 5.83472 41.3234 5.82544 41.3389 5.81926C41.3544 5.81309 41.371 5.81014 41.3877 5.81059Z" fill="#34D399"/>
<path d="M43.0247 6.57422C43.1509 6.70039 43.1509 7.07227 43.1509 7.32959C43.0247 7.20342 43.1509 7.07725 43.1509 6.95107C43.0247 6.82656 42.9002 6.70039 43.0247 6.57422Z" fill="#34D399"/>
<path d="M40.3816 6.82671C40.5078 6.70053 40.3816 6.95288 40.3816 6.82671V6.82671Z" fill="#34D399"/>
<path d="M40.3815 6.95093C40.5077 6.95093 40.3815 7.0771 40.3815 7.0771V7.32944C40.2553 7.32944 40.3815 7.20327 40.3815 6.95093Z" fill="#34D399"/>
<path d="M41.8923 7.45601C41.9906 7.86792 42.0331 8.29118 42.0185 8.7144C41.8923 8.7144 42.0185 8.58823 42.0185 8.46206V7.32983C42.0185 7.70835 41.8923 7.58218 41.8923 7.45601Z" fill="#34D399"/>
<path d="M41.3877 7.45581C41.5139 7.45581 41.3877 7.58198 41.5139 7.70815C41.3877 7.70815 41.3877 7.58198 41.3877 7.45581Z" fill="#34D399"/>
<path d="M42.6479 7.45581C42.774 7.45581 42.6479 7.58198 42.6479 7.58198C42.5217 7.58198 42.6479 7.58198 42.6479 7.45581Z" fill="#34D399"/>
<path d="M41.3877 7.70825C41.5138 7.70825 41.3877 7.83442 41.3877 7.70825C41.3877 7.83442 41.5138 7.9606 41.3877 8.08677V7.70825Z" fill="#34D399"/>
<path d="M40.3816 7.83276C40.5078 7.95894 40.3816 7.95894 40.3816 7.83276V7.83276Z" fill="#34D399"/>
<path d="M41.3879 8.08496C41.514 8.08496 41.3879 8.21113 41.3879 8.3373V8.4668C41.2617 8.4668 41.3879 8.59297 41.3879 8.71914V8.08496Z" fill="#34D399"/>
<path d="M40.8848 8.96479C41.0109 8.83862 41.2633 8.83862 41.6401 8.83862H42.2693C41.8156 8.94283 41.3499 8.98527 40.8848 8.96479Z" fill="#34D399"/>
<path d="M42.7739 8.96477C42.7739 8.96477 43.0263 8.83859 43.0263 8.96477H42.7739Z" fill="#34D399"/>
<path d="M39.7509 9.0927C39.877 8.96653 39.877 9.0927 39.7509 9.0927V9.34504C39.7509 9.47121 39.7509 9.59739 39.6247 9.59739C39.6247 9.72356 39.6247 9.84973 39.4985 9.84973C39.5944 9.75039 39.6669 9.63083 39.7106 9.49983C39.7542 9.36883 39.768 9.22972 39.7509 9.0927Z" fill="#34D399"/>
<path d="M42.3953 9.21892C42.3953 9.09275 42.5214 9.21892 42.6476 9.21892C42.6476 9.34509 42.3953 9.21892 42.3953 9.21892Z" fill="#34D399"/>
<path d="M42.3953 9.4629C42.3953 9.33673 42.6476 9.4629 42.6476 9.4629C42.632 9.44468 42.6127 9.43005 42.5909 9.42001C42.5691 9.40998 42.5454 9.40479 42.5214 9.40479C42.4975 9.40479 42.4738 9.40998 42.452 9.42001C42.4302 9.43005 42.4108 9.44468 42.3953 9.4629Z" fill="#34D399"/>
<path d="M43.1509 9.46304C43.1509 9.33687 43.2771 9.33687 43.1509 9.46304V9.46304Z" fill="#34D399"/>
<path d="M41.2632 9.59587C41.2632 9.59587 41.5155 9.4697 41.5155 9.59587H41.2632Z" fill="#34D399"/>
<path d="M41.6401 9.59585C41.6401 9.46968 41.7663 9.46968 41.6401 9.59585V9.59585Z" fill="#34D399"/>
<path d="M42.6476 9.46289C42.6476 9.58907 42.5214 9.46289 42.3953 9.46289H42.6476Z" fill="#34D399"/>
<path d="M42.6477 9.59585C42.6477 9.46968 42.7739 9.46968 42.6477 9.59585V9.59585Z" fill="#34D399"/>
<path d="M38.8691 9.59587C38.8691 9.4697 38.9953 9.59587 39.1215 9.59587C39.1052 9.61295 39.0856 9.62654 39.0639 9.63583C39.0423 9.64512 39.0189 9.64991 38.9953 9.64991C38.9717 9.64991 38.9484 9.64512 38.9267 9.63583C38.905 9.62654 38.8854 9.61295 38.8691 9.59587Z" fill="#34D399"/>
<path d="M43.6621 9.5957H43.7883C43.7816 9.72188 43.6621 9.72188 43.6621 9.5957Z" fill="#34D399"/>
<path d="M44.1602 9.59587C44.1602 9.4697 44.4125 9.59587 44.4125 9.59587H44.6582C44.4108 9.72205 44.2847 9.72205 44.1602 9.59587Z" fill="#34D399"/>
<path d="M43.7818 9.72192C43.7818 9.8481 43.1526 9.72192 43.5294 9.72192H43.7818Z" fill="#34D399"/>
<path d="M43.4033 9.97429C43.4033 9.84812 43.6557 9.97429 43.6557 9.97429C43.6394 9.95721 43.6198 9.94362 43.5981 9.93433C43.5764 9.92504 43.5531 9.92025 43.5295 9.92025C43.5059 9.92025 43.4826 9.92504 43.4609 9.93433C43.4392 9.94362 43.4196 9.95721 43.4033 9.97429Z" fill="#34D399"/>
<path d="M43.7818 9.97412C43.7818 10.1003 43.5295 9.97412 43.4033 10.1003H43.6623C43.6619 10.0842 43.6646 10.0681 43.6704 10.053C43.6761 10.0379 43.6848 10.0242 43.6959 10.0124C43.707 10.0007 43.7203 9.99131 43.7351 9.98473C43.7498 9.97816 43.7657 9.97455 43.7818 9.97412Z" fill="#34D399"/>
<path d="M43.7818 10.1006C43.7818 10.2268 43.6557 10.1006 43.5295 10.2268H43.4033C43.5295 9.97446 43.6623 10.1006 43.7818 10.1006Z" fill="#34D399"/>
<path d="M41.7663 10.4773V10.7296C41.7663 10.8558 41.7663 10.982 41.6401 10.982V10.7296C41.6401 10.6035 41.6401 10.4773 41.7663 10.4773Z" fill="#34D399"/>
<path d="M41.8923 10.4773V10.9753C41.7661 10.9753 41.7661 10.8492 41.7661 10.723C41.7661 10.5968 41.7661 10.4773 41.8923 10.4773Z" fill="#34D399"/>
<path d="M41.5139 10.4773C41.6401 10.4773 41.5139 10.7296 41.5139 10.8558V10.4773Z" fill="#34D399"/>
<path d="M41.3876 10.6033C41.5137 10.7294 41.3876 10.8556 41.3876 10.9818C41.2631 11.108 41.2631 10.7294 41.3876 10.6033Z" fill="#34D399"/>
<path d="M41.3877 11.3588C41.3877 11.2326 41.5138 11.3588 41.3877 11.3588V11.3588Z" fill="#34D399"/>
<path d="M41.3877 11.611C41.3877 11.4848 41.5138 11.4848 41.3877 11.611V11.611Z" fill="#34D399"/>
<path d="M41.2632 13.8772C41.2799 13.8768 41.2965 13.8797 41.312 13.8859C41.3275 13.8921 41.3416 13.9014 41.3534 13.9132C41.3652 13.925 41.3745 13.9391 41.3807 13.9546C41.3869 13.9701 41.3898 13.9867 41.3894 14.0034V14.7588V14.0034C41.3877 14.1296 41.2632 14.1296 41.2632 13.8772Z" fill="#34D399"/>
<path d="M41.8923 14.1296C42.0185 14.2558 41.8923 14.2558 41.8923 14.1296V14.1296Z" fill="#34D399"/>
<path d="M41.2634 14.5083C41.3895 14.5083 41.2634 14.5083 41.2634 14.6345C41.1372 14.6328 41.2634 14.5083 41.2634 14.5083Z" fill="#34D399"/>
<path d="M41.8923 15.1374C42.0185 15.0112 42.0185 15.1374 41.8923 15.1374V15.1374Z" fill="#34D399"/>
<path d="M41.8923 15.5142C42.0185 15.6403 41.8923 15.6403 41.8923 15.5142V15.5142Z" fill="#34D399"/>
<path d="M41.137 16.2697C41.137 16.1435 41.2631 16.2697 41.137 16.2697V16.2697Z" fill="#34D399"/>
<path d="M41.137 16.5219C41.137 16.3957 41.2631 16.5219 41.137 16.5219V16.5219Z" fill="#34D399"/>
<path d="M41.8923 16.6481C41.8923 16.5219 42.0185 16.5219 41.8923 16.6481V16.6481Z" fill="#34D399"/>
<path d="M41.137 16.7676C41.2631 16.7676 41.2631 16.8938 41.137 16.7676V16.7676Z" fill="#34D399"/>
<path d="M41.7663 17.782C41.8925 17.782 41.8925 18.1605 41.7663 18.1605C41.6401 18.1605 41.7663 18.0343 41.7663 17.9082V17.782Z" fill="#34D399"/>
<path d="M41.6401 17.908C41.7663 18.0341 41.7663 18.2865 41.5139 18.2865C41.6401 18.1586 41.5139 17.908 41.6401 17.908Z" fill="#34D399"/>
<path d="M41.1369 17.908C41.2631 17.908 41.1369 18.1603 41.1369 18.1603C41.0058 18.1586 41.1369 18.0325 41.1369 17.908Z" fill="#34D399"/>
<path d="M39.1216 19.5452C39.2478 19.6713 39.374 19.6713 39.5001 19.7975C39.374 19.9237 39.374 19.7975 39.2478 19.6713C39.2311 19.6718 39.2145 19.6688 39.199 19.6627C39.1835 19.6565 39.1694 19.6472 39.1576 19.6354C39.1458 19.6236 39.1365 19.6095 39.1303 19.594C39.1241 19.5785 39.1212 19.5619 39.1216 19.5452Z" fill="#34D399"/>
<path d="M43.2771 19.6711C43.2771 19.5449 43.4033 19.6711 43.2771 19.6711V19.6711Z" fill="#34D399"/>
<path d="M41.5139 19.9219C41.6401 20.048 41.3877 20.048 41.3877 20.1742C41.2632 20.048 41.5139 20.048 41.5139 19.9219Z" fill="#34D399"/>
<path d="M41.8925 21.4328C41.7663 21.4328 41.8925 21.3066 41.8925 21.3066L42.0187 21.1804C42.0354 21.1809 42.052 21.1779 42.0675 21.1718C42.083 21.1656 42.0971 21.1563 42.1089 21.1445C42.1207 21.1327 42.13 21.1186 42.1362 21.1031C42.1424 21.0876 42.1453 21.0709 42.1448 21.0543C42.271 21.0543 42.271 20.9281 42.3972 20.9281L42.5234 20.8019H42.6495L42.7757 20.6757C42.9019 20.5496 43.0281 20.5496 43.1542 20.4234C43.2804 20.4234 43.2804 20.2972 43.4066 20.2972C43.5327 20.2972 43.5327 20.2972 43.6589 20.171C43.7851 20.171 44.0374 19.9187 44.157 19.9187C43.9046 20.0449 43.7784 20.171 43.5278 20.2972C43.3359 20.451 43.1243 20.5783 42.8986 20.6757C42.7724 20.8019 42.6462 20.9281 42.52 20.9281C42.3939 20.9281 42.3939 21.0543 42.2677 21.1804C42.0187 21.3083 42.0187 21.4328 41.8925 21.4328Z" fill="#34D399"/>
<path d="M42.8999 20.1742C42.8999 20.0481 43.1522 20.1742 43.1522 20.1742H42.8999Z" fill="#34D399"/>
<path d="M40.7585 20.42C40.7585 20.5461 40.6323 20.2938 40.7585 20.42V20.42Z" fill="#34D399"/>
<path d="M42.9001 8.33735C42.7739 8.33735 43.0263 8.21118 43.0263 8.21118C42.9001 8.21118 42.9001 8.33735 42.7739 8.46353C42.7085 8.53559 42.6185 8.58059 42.5216 8.5897C42.5143 8.64097 42.519 8.69323 42.5355 8.74233C42.552 8.79142 42.5798 8.83598 42.6165 8.87243C42.6533 8.90889 42.6981 8.93624 42.7474 8.95229C42.7966 8.96835 42.8489 8.97266 42.9001 8.96489C43.0263 8.96489 42.9001 9.09106 42.7739 9.09106H42.5216C42.3954 9.09106 42.2692 8.96489 42.0235 8.96489C42.0231 8.9482 42.026 8.93159 42.0322 8.91607C42.0384 8.90056 42.0477 8.88647 42.0595 8.87466C42.0713 8.86285 42.0854 8.85357 42.1009 8.84739C42.1164 8.84121 42.133 8.83826 42.1497 8.83872C42.0235 8.46021 42.1497 7.83101 42.0235 7.45415V8.46685C42.0235 8.59302 42.0235 8.71919 41.8974 8.71919V7.45581C42.0063 7.37337 42.1393 7.32903 42.2759 7.32964C42.2759 7.32964 42.7739 7.32964 42.7739 7.45581V7.83433C42.7739 7.83433 42.2759 7.70815 42.2759 7.58198C42.2759 7.45581 42.0235 7.45581 42.0235 7.32964C41.7712 7.32964 41.5255 7.45581 41.2682 7.45581C41.2682 7.95386 41.142 8.08501 41.2682 8.5897C41.3943 8.71587 41.2682 8.84204 41.142 8.84204C41.142 8.96821 41.2682 8.96821 41.3943 8.96821H41.7729C41.899 7.70981 42.2709 8.33901 42.2709 7.9605C42.2709 7.9605 42.769 7.70815 42.769 7.83433V7.9605C42.8169 8.0102 42.8531 8.06998 42.8749 8.13547C42.8967 8.20096 42.9036 8.27051 42.8951 8.33901V8.71753C42.8951 8.8437 42.5166 8.71753 42.5166 8.8437C41.9679 8.82309 41.4187 8.86543 40.8797 8.96987C40.8797 9.09605 40.7535 8.96987 40.6274 9.09605C40.6182 9.19295 40.5732 9.28296 40.5012 9.34839C40.5012 9.47456 40.6274 9.34839 40.7535 9.47456C40.8797 9.60073 40.5078 9.46294 40.5078 9.59575C40.5078 9.72856 40.5078 9.8481 40.634 9.8481L40.5078 9.97427C40.634 10.1004 40.7602 9.97427 40.8863 9.97427H41.0059V9.72192C41.0059 9.59575 41.5039 9.46958 41.7612 9.46958H43.1458C43.272 9.46958 43.272 9.34341 43.0196 9.34341C43.0192 9.3601 43.0221 9.37671 43.0283 9.39223C43.0345 9.40774 43.0438 9.42184 43.0556 9.43364C43.0674 9.44545 43.0815 9.45473 43.097 9.46091C43.1125 9.46709 43.1291 9.47004 43.1458 9.46958C43.1458 9.34341 43.0196 9.34341 43.0196 9.21724H42.8935C43.0196 9.09106 43.2714 9.09106 43.6488 9.21724L43.775 9.34341C44.1535 9.46958 44.5304 9.46958 44.9089 9.59575C45.0345 10.0058 45.0345 10.4441 44.9089 10.8542C44.6566 10.9803 44.4109 10.9803 44.0274 10.9803H43.775C43.6488 10.9803 43.6488 11.1065 43.5227 11.1065H43.2703C43.1442 11.1065 43.1441 11.1065 43.018 10.9803H42.5199V12.9958C42.5199 13.1219 42.7723 13.1219 42.7723 13.3743H43.0246C43.0246 13.5004 43.1508 13.5004 43.1508 13.6266C43.277 13.6266 43.277 13.6266 43.4031 13.7528C43.4031 13.879 43.5293 13.879 43.5293 14.0051C43.6555 14.0051 43.6555 14.0051 43.6555 14.1313L43.7817 14.2575C43.7817 14.3836 43.5293 14.3836 43.4031 14.3836C43.4031 14.5098 43.5293 14.636 43.7817 14.636H43.6621C43.6788 14.6364 43.6954 14.6335 43.7109 14.6273C43.7265 14.6211 43.7405 14.6119 43.7524 14.6C43.7642 14.5882 43.7734 14.5741 43.7796 14.5586C43.7858 14.5431 43.7887 14.5265 43.7883 14.5098C43.6621 14.5098 43.6621 14.5098 43.6621 14.3836C43.7883 14.3836 43.7883 14.5098 43.9145 14.5098C43.9145 14.7622 44.0406 14.8883 44.0406 15.139V15.5175C44.0406 15.6437 43.9145 15.7699 43.9145 15.896C43.7883 16.0222 43.7883 16.1484 43.6621 16.2746C43.5359 16.2746 43.5359 16.4007 43.4098 16.5269C43.2836 16.5269 43.2836 16.6531 43.1574 16.6531C43.0313 16.7792 43.0313 16.9054 42.7789 17.0316C42.7789 17.1578 42.6527 17.1578 42.5266 17.2839V17.4101C42.5146 17.7092 42.5573 18.0079 42.6527 18.2916C42.6441 18.3602 42.651 18.4297 42.6728 18.4952C42.6947 18.5608 42.7309 18.6205 42.7789 18.6702V18.9225C42.8739 19.1101 43.0021 19.2788 43.1574 19.4206C43.2836 19.4206 43.4098 19.5467 43.5359 19.5467C43.7883 19.5467 44.1651 19.4206 44.4175 19.4206C44.1651 19.5467 43.7883 19.6729 43.5359 19.5467C42.7806 19.4206 42.6544 18.6652 42.6544 17.9098C42.6373 17.9261 42.6237 17.9457 42.6144 17.9674C42.6052 17.989 42.6004 18.0124 42.6004 18.036C42.6004 18.0596 42.6052 18.0829 42.6144 18.1046C42.6237 18.1263 42.6373 18.1459 42.6544 18.1622C42.6459 18.2307 42.6528 18.3002 42.6746 18.3657C42.6965 18.4312 42.7327 18.491 42.7806 18.5407V18.793C42.9018 19.0716 43.0703 19.3272 43.2786 19.5484C43.3629 19.6323 43.447 19.7165 43.531 19.8007C42.9018 19.6746 42.7756 19.0454 42.6494 18.29V18.6685C42.6494 18.7947 42.6494 18.7947 42.7756 18.9209C42.7756 19.047 42.7756 19.1732 42.9018 19.1732V19.2994C42.9013 19.3161 42.9043 19.3327 42.9104 19.3482C42.9166 19.3637 42.9259 19.3778 42.9377 19.3896C42.9495 19.4014 42.9636 19.4107 42.9791 19.4169C42.9946 19.423 43.0112 19.426 43.0279 19.4255H43.1541V19.5517L43.5293 19.9219C43.7817 20.0481 44.0274 20.0481 44.4109 19.9219C44.2722 19.9842 44.122 20.0164 43.9701 20.0164C43.8181 20.0164 43.6679 19.9842 43.5293 19.9219C43.4031 19.9219 43.1508 19.7958 43.1508 19.6696V19.5434L43.0246 19.4172C43.0155 19.3203 42.9705 19.2303 42.8984 19.1649C42.8984 19.0387 42.7723 19.0387 42.7723 18.9125C42.7723 18.7864 42.6461 18.4145 42.6461 18.1572C42.5199 18.2833 42.6461 18.4095 42.6461 18.5357C42.6461 18.6619 42.6461 18.9142 42.7723 19.0337V19.1599L42.8984 19.2861C42.8984 19.4123 42.8984 19.4123 43.0246 19.5384C43.1508 19.7908 43.5227 19.9169 43.78 19.9169H43.5293C43.4031 19.9169 43.4031 19.7908 43.277 19.7908C43.1508 19.7908 43.0246 19.6646 42.8984 19.5384V19.4239H42.7723V19.2977L42.6461 19.1715C42.6466 19.1548 42.6436 19.1382 42.6374 19.1227C42.6313 19.1072 42.622 19.0931 42.6102 19.0813C42.5984 19.0695 42.5843 19.0602 42.5687 19.054C42.5532 19.0479 42.5366 19.0449 42.5199 19.0454V18.9192C42.4582 18.8005 42.4156 18.6727 42.3938 18.5407C42.3938 18.4145 42.2676 18.1622 42.2676 17.9115V18.29V18.6685C42.2676 19.1666 42.6461 19.4239 42.8968 19.6762C43.023 19.6762 43.1491 19.8024 43.2753 19.8024C43.2753 19.9286 43.1491 19.8024 43.1491 19.8024C43.0522 19.7933 42.9622 19.7483 42.8968 19.6762V19.55C42.8801 19.5505 42.8635 19.5476 42.848 19.5414C42.8324 19.5352 42.8184 19.5259 42.8066 19.5141C42.7947 19.5023 42.7855 19.4882 42.7793 19.4727C42.7731 19.4572 42.7702 19.4406 42.7706 19.4239L42.6444 19.2977C42.6444 19.1715 42.5183 19.0454 42.3921 18.9192V18.793H42.2659C42.2659 18.793 42.2659 18.5407 42.1398 18.5407C42.0136 18.4145 42.0136 18.0426 42.0136 17.7853V18.4145C42.0131 18.4312 42.0161 18.4478 42.0223 18.4633C42.0284 18.4788 42.0377 18.4929 42.0495 18.5047C42.0613 18.5165 42.0754 18.5258 42.0909 18.532C42.1065 18.5382 42.1231 18.5411 42.1398 18.5407C42.1313 18.6092 42.1382 18.6787 42.16 18.7442C42.1818 18.8097 42.218 18.8695 42.2659 18.9192C42.2659 19.0454 42.3921 19.1715 42.5183 19.2977C42.6444 19.4239 42.7706 19.55 42.7706 19.6762C42.8968 19.6762 42.8968 19.8024 43.023 19.8024C43.023 19.9286 42.8968 19.8024 42.7706 19.8024C42.6813 19.7753 42.6 19.7266 42.5339 19.6605C42.4679 19.5945 42.4192 19.5132 42.3921 19.4239L42.2659 19.2977V19.1715C42.1078 18.9509 42.0198 18.6876 42.0136 18.4162C41.8874 18.5423 42.0136 18.6685 42.0136 18.7947C42.0227 18.8916 42.0677 18.9816 42.1398 19.047C42.1564 19.0466 42.1731 19.0495 42.1886 19.0557C42.2041 19.0619 42.2182 19.0711 42.23 19.083C42.2418 19.0948 42.2511 19.1089 42.2573 19.1244C42.2634 19.1399 42.2664 19.1565 42.2659 19.1732V19.2994C42.2702 19.3649 42.2982 19.4266 42.3446 19.473C42.391 19.5195 42.4528 19.5474 42.5183 19.5517V19.6779L42.6444 19.8041C42.5183 19.8041 42.5183 19.6779 42.3921 19.6779L42.2659 19.5517L42.1398 19.4255V19.2994H42.0136C42.0221 19.2309 42.0152 19.1613 41.9933 19.0958C41.9715 19.0303 41.9353 18.9706 41.8874 18.9209C41.7612 18.9209 41.8874 19.047 41.8874 19.1732V19.2994L42.0136 19.4255C42.0131 19.4422 42.0161 19.4588 42.0223 19.4744C42.0284 19.4899 42.0377 19.504 42.0495 19.5158C42.0613 19.5276 42.0754 19.5369 42.0909 19.543C42.1065 19.5492 42.1231 19.5522 42.1398 19.5517C42.1398 19.6779 42.2659 19.6779 42.3921 19.8041C42.3921 19.9302 42.2659 19.6779 42.1398 19.6779V19.5517C42.0711 19.4837 42.0268 19.3951 42.0136 19.2994V19.4239C42.0136 19.55 42.0136 19.55 42.1398 19.55V19.6762L42.2659 19.8024C42.3921 19.9286 42.3921 20.0547 42.5183 20.0547C42.6444 20.0547 42.7706 20.1809 42.8968 20.1809C42.7706 20.3071 42.6444 20.1809 42.5183 20.0547L42.3921 19.9286C42.2659 19.8024 42.1398 19.8024 42.0136 19.6762C42.0136 19.55 41.8874 19.55 41.8874 19.4239C41.7612 19.4239 41.8874 19.55 41.8874 19.55C41.8874 19.6762 42.0136 19.8024 42.1398 19.9286C42.3921 20.0547 42.5183 20.3071 42.8951 20.3071C42.769 20.4333 42.6428 20.3071 42.5166 20.3071H42.3904L42.2643 20.1809C42.2476 20.1814 42.231 20.1784 42.2154 20.1722C42.1999 20.1661 42.1858 20.1568 42.174 20.145C42.1622 20.1332 42.1529 20.1191 42.1468 20.1036C42.1406 20.088 42.1376 20.0714 42.1381 20.0547C42.0119 19.9286 42.0119 19.8024 41.8858 19.8024C41.8913 19.901 41.933 19.9941 42.0028 20.0639C42.0726 20.1337 42.1657 20.1754 42.2643 20.1809C42.3235 20.2571 42.3989 20.3193 42.485 20.3629C42.5711 20.4065 42.6658 20.4305 42.7623 20.4333H42.51C42.3225 20.4007 42.1491 20.3128 42.0119 20.1809L41.8858 20.0547C41.7596 20.0547 41.8858 20.1809 41.8858 20.1809C41.9024 20.1805 41.9191 20.1834 41.9346 20.1896C41.9501 20.1958 41.9642 20.205 41.976 20.2168C41.9878 20.2287 41.9971 20.2427 42.0033 20.2583C42.0094 20.2738 42.0124 20.2904 42.0119 20.3071H42.1381C42.2643 20.3071 42.2643 20.4333 42.3904 20.5594C42.3904 20.6856 42.2643 20.5594 42.1381 20.5594C42.0119 20.4333 41.8858 20.3071 41.7596 20.3071C41.7596 20.4333 41.8858 20.4333 42.0119 20.5594C42.1381 20.5594 42.1381 20.6856 42.2643 20.6856C42.1381 20.8118 41.8858 20.5594 41.8858 20.5594C41.7596 20.5594 42.0119 20.6856 42.0119 20.6856C42.1381 20.6856 42.1381 20.8118 42.2643 20.8118C42.1381 20.9379 42.0119 20.8118 41.8858 20.6856C41.8858 20.8118 42.0119 20.8118 42.1381 20.9379C42.2643 20.9379 42.2643 20.8118 42.3904 20.8118H42.5166V20.6856H42.6428C42.769 20.6856 42.769 20.5594 42.8951 20.5594C42.8947 20.5427 42.8976 20.5261 42.9038 20.5106C42.91 20.4951 42.9193 20.481 42.9311 20.4692C42.9429 20.4574 42.957 20.4481 42.9725 20.4419C42.988 20.4357 43.0046 20.4328 43.0213 20.4333C43.038 20.4337 43.0546 20.4308 43.0701 20.4246C43.0856 20.4184 43.0997 20.4091 43.1115 20.3973C43.1233 20.3855 43.1326 20.3714 43.1388 20.3559C43.145 20.3404 43.1479 20.3238 43.1475 20.3071C43.2736 20.3071 43.3998 20.1809 43.526 20.1809L43.6522 20.0547C43.7201 19.9861 43.8088 19.9418 43.9045 19.9286C43.6522 20.1809 43.2753 20.3071 43.023 20.4266L42.8968 20.5528H42.7706L42.6444 20.679C42.5183 20.8051 42.3921 20.8051 42.2676 20.9313C42.2676 21.0575 42.3938 20.9313 42.3938 20.9313C42.5199 20.8051 42.6461 20.679 42.7723 20.679C42.8984 20.5528 43.0246 20.5528 43.2703 20.4266C43.3965 20.3004 43.5227 20.3004 43.7684 20.1743C43.8945 20.0481 44.1469 20.0481 44.2664 19.9219C44.2167 19.9698 44.1569 20.006 44.0914 20.0279C44.0259 20.0497 43.9564 20.0566 43.8879 20.0481C43.7922 20.0613 43.7035 20.1056 43.6356 20.1743L43.5094 20.3004H43.3832V20.42C43.257 20.42 43.257 20.5461 43.1309 20.5461C42.9937 20.6779 42.8202 20.7658 42.6328 20.7985C42.5066 20.9247 42.3805 21.0508 42.256 21.0508C42.1315 21.0508 42.0036 20.7985 41.8775 20.7985C41.7513 20.6723 41.6251 20.6723 41.3794 20.5461C41.5056 20.5461 41.6317 20.6723 41.7579 20.6723C41.7746 20.6719 41.7912 20.6748 41.8067 20.681C41.8223 20.6872 41.8363 20.6964 41.8482 20.7083C41.86 20.7201 41.8692 20.7342 41.8754 20.7497C41.8816 20.7652 41.8845 20.7818 41.8841 20.7985C42.0103 20.9247 42.1364 20.9247 42.2626 21.0508C42.3888 20.7985 42.2626 20.5528 42.2626 20.1693V20.0431V19.9219V17.4035C42.3888 17.5296 42.2626 17.6558 42.3888 17.6558C42.4059 17.6395 42.4194 17.62 42.4287 17.5983C42.438 17.5766 42.4428 17.5532 42.4428 17.5296C42.4428 17.506 42.438 17.4827 42.4287 17.461C42.4194 17.4393 42.4059 17.4197 42.3888 17.4035C42.515 17.4035 42.3888 17.5296 42.515 17.5296C42.6411 17.5296 42.3888 17.2773 42.515 17.2773C42.6411 17.1511 42.6411 17.2773 42.6411 17.4035C42.7673 17.4035 42.6411 17.2773 42.6411 17.2773C42.6578 17.2778 42.6744 17.2748 42.6899 17.2686C42.7055 17.2624 42.7195 17.2532 42.7314 17.2414C42.7432 17.2296 42.7524 17.2155 42.7586 17.1999C42.7648 17.1844 42.7677 17.1678 42.7673 17.1511C42.8935 17.1511 42.7673 17.2773 42.7673 17.4035C42.8935 17.4035 42.7673 17.2773 42.7673 17.1511C42.6411 17.2773 42.515 17.2773 42.3888 17.4035C42.2626 17.4035 42.2626 17.5296 42.1364 17.5296C42.0103 17.6558 42.0103 17.6558 41.8841 17.6558C41.8674 17.6554 41.8508 17.6583 41.8353 17.6645C41.8198 17.6707 41.8057 17.6799 41.7939 17.6917C41.782 17.7036 41.7728 17.7176 41.7666 17.7332C41.7604 17.7487 41.7575 17.7653 41.7579 17.782C41.7584 17.7987 41.7554 17.8153 41.7492 17.8308C41.7431 17.8463 41.7338 17.8604 41.722 17.8722C41.7102 17.884 41.6961 17.8933 41.6806 17.8995C41.6651 17.9057 41.6484 17.9086 41.6317 17.9082C41.4899 18.0634 41.3212 18.1916 41.1337 18.2867C41.0075 18.2867 41.0075 18.4128 41.0075 18.539C40.8814 18.6652 40.7552 18.7914 40.629 18.7914C40.629 18.9175 40.5028 18.9175 40.3767 19.0437C40.2505 19.1699 40.2505 19.1699 40.2505 19.296C39.9982 19.296 39.7525 19.1699 39.6213 19.1699H39.4951C39.3764 19.1081 39.2486 19.0655 39.1166 19.0437L38.9904 18.9175C38.9737 18.918 38.9571 18.915 38.9416 18.9089C38.9261 18.9027 38.912 18.8934 38.9002 18.8816C38.8884 18.8698 38.8791 18.8557 38.8729 18.8402C38.8668 18.8247 38.8638 18.8081 38.8643 18.7914C38.8647 18.7747 38.8618 18.7581 38.8556 18.7425C38.8494 18.727 38.8401 18.7129 38.8283 18.7011C38.8165 18.6893 38.8024 18.68 38.7869 18.6739C38.7714 18.6677 38.7548 18.6647 38.7381 18.6652L38.6119 18.539C38.6119 18.539 38.3596 18.4128 38.3596 18.2867C38.2334 18.1605 38.1072 17.9082 37.9811 17.7886C37.8549 17.5363 37.6025 17.1594 37.483 16.9071C37.3568 16.7809 37.3568 16.5286 37.3568 16.409C37.2528 16.0406 37.2102 15.6575 37.2307 15.2751C37.1045 15.4013 37.2307 15.5275 37.1045 15.6537V16.1517C37.1045 16.2779 37.1045 16.2779 37.2307 16.2779C37.1045 16.4041 37.2307 16.6564 37.2307 16.7759C37.3568 16.6498 37.2307 16.5236 37.2307 16.2779C37.3568 16.2779 37.2307 16.5302 37.3568 16.4041L37.2307 16.5302V16.6564C37.2307 16.7826 37.3568 16.9087 37.483 17.0349C37.483 17.1611 37.6092 17.1611 37.6092 17.2873L37.7354 17.4134C37.7354 17.5396 37.8615 17.5396 37.8615 17.6658C37.9877 17.5396 37.7354 17.5396 37.8615 17.4134C37.9934 17.5506 38.0813 17.724 38.1139 17.9115V18.0376H38.24V18.1638L38.3662 18.29C38.3662 18.4162 38.4924 18.4162 38.4924 18.5423V18.6685C38.5091 18.668 38.5257 18.671 38.5412 18.6772C38.5567 18.6834 38.5708 18.6926 38.5826 18.7044C38.5944 18.7163 38.6037 18.7303 38.6099 18.7459C38.6161 18.7614 38.619 18.778 38.6186 18.7947V18.9209L38.9971 19.2994C38.9971 19.4255 39.1233 19.4255 39.1233 19.5517H39.2494V19.6779H39.3756V19.8041H39.5018L39.6279 19.9302L39.7541 20.0564C39.8498 20.0696 39.9385 20.1139 40.0065 20.1826C40.0231 20.1821 40.0398 20.1851 40.0553 20.1912C40.0708 20.1974 40.0849 20.2067 40.0967 20.2185C40.1085 20.2303 40.1178 20.2444 40.124 20.2599C40.1301 20.2754 40.1331 20.292 40.1326 20.3087C40.2006 20.3774 40.2893 20.4217 40.385 20.4349H40.5078L40.634 20.5611H40.7602L40.8863 20.6873C41.0125 20.6873 41.0125 20.8134 41.1387 20.8134C41.2649 20.9396 41.5172 20.9396 41.7679 21.0658C41.8941 21.1919 42.0202 21.1919 42.1464 21.3181H42.3987V21.4443C42.5249 21.5705 42.7773 21.6966 42.8968 21.8228C43.023 21.6966 43.023 21.5705 43.1491 21.5705C43.2753 21.4443 43.4015 21.3181 43.5276 21.3181H43.6621L43.7883 21.1919H43.9145C43.9824 21.1233 44.0711 21.079 44.1668 21.0658C44.2165 21.0179 44.2763 20.9817 44.3418 20.9598C44.4073 20.938 44.4768 20.9311 44.5453 20.9396V20.8134H44.6582C44.7954 20.6816 44.9688 20.5937 45.1563 20.5611C45.4086 20.4349 45.6543 20.3087 45.7855 20.063C45.9116 20.063 46.0378 19.8107 46.164 19.9369C46.1635 19.9202 46.1665 19.9036 46.1726 19.888C46.1788 19.8725 46.1881 19.8584 46.1999 19.8466C46.2117 19.8348 46.2258 19.8255 46.2413 19.8194C46.2568 19.8132 46.2734 19.8102 46.2901 19.8107L46.6687 19.4322L46.7948 19.306L46.921 19.1798L47.0472 19.0537C47.2995 18.8013 47.4257 18.4245 47.5452 18.1721C47.4563 18.5033 47.285 18.8066 47.0472 19.0537L46.7948 19.306C46.6687 19.4322 46.6687 19.5584 46.5425 19.5584C46.5425 19.6845 46.5425 19.5583 46.4163 19.6845V19.8107C46.3996 19.8102 46.383 19.8132 46.3675 19.8194C46.352 19.8255 46.3379 19.8348 46.3261 19.8466C46.3143 19.8584 46.305 19.8725 46.2988 19.888C46.2926 19.9036 46.2897 19.9202 46.2901 19.9369H46.164C46.1644 19.9536 46.1615 19.9702 46.1553 19.9857C46.1491 20.0012 46.1398 20.0153 46.128 20.0271C46.1162 20.0389 46.1021 20.0482 46.0866 20.0544C46.0711 20.0605 46.0545 20.0635 46.0378 20.063C45.9116 20.1892 45.6593 20.3154 45.5398 20.4416C45.5231 20.4411 45.5064 20.444 45.4909 20.4502C45.4754 20.4564 45.4613 20.4657 45.4495 20.4775C45.4377 20.4893 45.4284 20.5034 45.4223 20.5189C45.4161 20.5344 45.4131 20.551 45.4136 20.5677C45.414 20.5844 45.4111 20.601 45.4049 20.6165C45.3987 20.6321 45.3895 20.6462 45.3776 20.658C45.3658 20.6698 45.3517 20.679 45.3362 20.6852C45.3207 20.6914 45.3041 20.6944 45.2874 20.6939H45.1612L45.0351 20.8201C45.0184 20.8196 45.0018 20.8226 44.9862 20.8287C44.9707 20.8349 44.9566 20.8442 44.9448 20.856C44.933 20.8678 44.9237 20.8819 44.9176 20.8974C44.9114 20.9129 44.9084 20.9295 44.9089 20.9462L44.7827 21.0724H44.6582V21.1986C44.5613 21.2077 44.4713 21.2527 44.4059 21.3248L44.2797 21.4509C44.0878 21.6047 43.8762 21.732 43.6505 21.8294C43.5243 21.9556 43.3982 22.0818 43.272 22.0818C43.1458 22.0818 43.1458 22.208 43.0196 22.208V22.3341H42.8935V22.4603C42.8935 22.4603 42.6411 22.5865 42.6411 22.7126C42.6411 22.8388 42.515 22.8388 42.515 22.965C42.5316 22.9654 42.5483 22.9625 42.5638 22.9563C42.5793 22.9501 42.5934 22.9409 42.6052 22.9291C42.617 22.9172 42.6263 22.9032 42.6325 22.8876C42.6386 22.8721 42.6416 22.8555 42.6411 22.8388L43.0196 22.4603C43.3418 22.2934 43.6386 22.0816 43.9012 21.8311C44.0274 21.8311 44.1535 21.7049 44.2797 21.7049V21.5788C44.4059 21.5788 44.4059 21.5788 44.532 21.4526C44.5487 21.453 44.5653 21.4501 44.5809 21.4439C44.5964 21.4377 44.6105 21.4285 44.6223 21.4167C44.6341 21.4048 44.6434 21.3908 44.6495 21.3752C44.6557 21.3597 44.6587 21.3431 44.6582 21.3264C44.7262 21.2578 44.8149 21.2135 44.9106 21.2002C45.0367 21.0741 45.1629 21.0741 45.1629 20.9479H45.2891L45.5414 20.6956C45.6676 20.6956 45.7938 20.5694 45.9199 20.4432C45.9199 20.4432 46.0461 20.1909 46.1723 20.1909L46.2984 20.0647V19.9219H46.4246C46.4242 19.9052 46.4271 19.8886 46.4333 19.8731C46.4395 19.8576 46.4487 19.8435 46.4606 19.8317C46.4724 19.8199 46.4865 19.8106 46.502 19.8044C46.5175 19.7982 46.5341 19.7953 46.5508 19.7958C46.677 19.6696 46.677 19.5434 46.8031 19.4172L46.9293 19.2911C46.9288 19.2744 46.9318 19.2578 46.938 19.2422C46.9442 19.2267 46.9534 19.2126 46.9652 19.2008C46.977 19.189 46.9911 19.1797 47.0067 19.1736C47.0222 19.1674 47.0388 19.1644 47.0555 19.1649L47.434 18.4095C47.434 18.2833 47.434 18.1572 47.5602 18.1572V18.031L47.6863 17.9048V17.5263C47.6863 17.4001 47.8125 17.1478 47.8125 16.8971C47.9387 16.8971 47.8125 17.0233 47.8125 17.0233C47.8323 17.2816 47.789 17.5408 47.6863 17.7787C47.6863 17.9048 47.6863 17.9048 47.5602 18.031C47.6863 18.1572 47.434 18.2834 47.434 18.5291C47.5602 18.4029 47.5602 18.1505 47.6863 17.7737C47.6863 17.6475 47.6863 17.6475 47.8125 17.5213V16.5219C47.8125 16.3958 47.8125 16.1434 47.6863 16.0239C47.5602 16.15 47.6863 16.15 47.6863 16.2762C47.6863 16.5286 47.5602 16.7743 47.5602 17.0316V17.2839C47.5602 17.4101 47.434 17.5363 47.434 17.6625C47.434 17.7886 47.434 17.7886 47.3078 17.9148C47.2392 17.9828 47.1949 18.0715 47.1817 18.1671L47.0555 18.2933C46.9869 18.3613 46.9425 18.45 46.9293 18.5457L46.1739 19.301C46.0478 19.4272 45.9216 19.4272 45.9216 19.5534C45.7297 19.7071 45.5181 19.8345 45.2924 19.9319C45.2924 19.8057 45.4186 19.8057 45.5447 19.8057C45.6709 19.6795 45.7971 19.6795 45.9233 19.5534C46.3191 19.2833 46.6609 18.9415 46.931 18.5457C46.8048 18.4195 46.8048 18.5457 46.6786 18.5457C46.4263 18.5457 46.3001 18.4195 46.1806 18.4195L46.4329 18.1671H46.5591V18.041C46.5758 18.0414 46.5924 18.0385 46.6079 18.0323C46.6234 18.0261 46.6375 18.0168 46.6493 18.005C46.6611 17.9932 46.6704 17.9791 46.6766 17.9636C46.6828 17.9481 46.6857 17.9315 46.6853 17.9148C46.8114 17.7886 46.9376 17.5363 47.0638 17.4167C47.0769 17.321 47.1212 17.2323 47.1899 17.1644C47.2032 17.0687 47.2475 16.98 47.3161 16.9121C47.3328 16.9125 47.3494 16.9096 47.3649 16.9034C47.3805 16.8972 47.3945 16.8879 47.4064 16.8761C47.4182 16.8643 47.4274 16.8502 47.4336 16.8347C47.4398 16.8192 47.4427 16.8026 47.4423 16.7859C47.4749 16.5984 47.5628 16.425 47.6946 16.2878C47.6861 16.2193 47.693 16.1498 47.7149 16.0843C47.7367 16.0188 47.7729 15.959 47.8208 15.9093C47.947 15.9093 47.947 16.0355 47.947 16.1617C47.9561 16.2586 48.0011 16.3486 48.0732 16.414C48.0732 16.5402 48.1993 16.6664 48.1993 16.9121C48.3255 17.1644 48.3255 17.5413 48.3255 18.0459C48.3255 18.5506 48.1993 19.1798 47.947 19.5567C47.8208 19.5567 47.8208 19.5567 47.8208 19.4305V19.3043H47.6946C47.6951 19.2877 47.6921 19.271 47.686 19.2555C47.6798 19.24 47.6705 19.2259 47.6587 19.2141C47.6469 19.2023 47.6328 19.193 47.6173 19.1868C47.6018 19.1807 47.5852 19.1777 47.5685 19.1782L47.4423 19.052C47.395 19.1008 47.359 19.1594 47.337 19.2237C47.3149 19.288 47.3072 19.3563 47.3145 19.4239C47.1883 19.55 47.0621 19.8024 46.9359 19.9219C46.7806 20.0636 46.6524 20.2324 46.5574 20.42C46.5574 20.5461 46.4313 20.42 46.4313 20.5461C46.4317 20.5628 46.4288 20.5794 46.4226 20.595C46.4164 20.6105 46.4071 20.6246 46.3953 20.6364C46.3835 20.6482 46.3694 20.6575 46.3539 20.6636C46.3384 20.6698 46.3218 20.6728 46.3051 20.6723H46.1789V20.7985L46.0527 20.9247H45.9266C45.927 20.9414 45.9241 20.958 45.9179 20.9735C45.9117 20.989 45.9024 21.0031 45.8906 21.0149C45.8788 21.0267 45.8647 21.036 45.8492 21.0422C45.8337 21.0483 45.8171 21.0513 45.8004 21.0508L45.5481 21.3032L44.7927 21.6817C44.6665 21.8079 44.5403 21.8079 44.4142 21.934L44.288 22.0602H44.1602C44.1435 22.0597 44.1269 22.0627 44.1113 22.0689C44.0958 22.0751 44.0817 22.0843 44.0699 22.0961C44.0581 22.108 44.0488 22.122 44.0427 22.1376C44.0365 22.1531 44.0335 22.1697 44.034 22.1864C43.9078 22.1864 43.9078 22.1864 43.7817 22.3125C43.765 22.3121 43.7483 22.315 43.7328 22.3212C43.7173 22.3274 43.7032 22.3367 43.6914 22.3485C43.6796 22.3603 43.6703 22.3744 43.6642 22.3899C43.658 22.4054 43.655 22.422 43.6555 22.4387H43.5293V22.5649C43.5126 22.5644 43.496 22.5674 43.4805 22.5736C43.465 22.5797 43.4509 22.589 43.4391 22.6008C43.4273 22.6126 43.418 22.6267 43.4118 22.6422C43.4056 22.6578 43.4027 22.6744 43.4031 22.6911V22.8172C43.3864 22.8168 43.3698 22.8197 43.3543 22.8259C43.3388 22.8321 43.3247 22.8414 43.3129 22.8532C43.3011 22.865 43.2918 22.8791 43.2856 22.8946C43.2795 22.9101 43.2765 22.9267 43.277 22.9434L43.0246 23.1958L42.8984 23.3219L42.7723 23.4481C42.7727 23.4648 42.7698 23.4814 42.7636 23.4969C42.7574 23.5124 42.7481 23.5265 42.7363 23.5383C42.7245 23.5501 42.7104 23.5594 42.6949 23.5656C42.6794 23.5718 42.6628 23.5747 42.6461 23.5743C42.4431 23.3967 42.2743 23.1834 42.1481 22.9451C41.9705 22.7421 41.7572 22.5733 41.5189 22.447L40.7635 22.0685C40.6373 21.9423 40.5111 21.9423 40.385 21.8162C40.317 21.7475 40.2283 21.7032 40.1326 21.69C40.0065 21.8162 40.0065 21.8162 40.0065 21.9423C39.8803 22.0685 40.0065 22.1947 40.0065 22.4404C40.0065 22.5666 40.1326 22.5666 40.2588 22.6927C40.2588 22.8189 40.2588 22.8189 40.385 22.9451C40.2588 22.8189 40.1326 22.8189 40.0065 22.5666C39.8803 22.5666 39.8803 22.6927 39.8803 22.8189V22.9451V23.0762C39.7541 23.0762 39.7541 22.8239 39.6279 22.6977C39.7541 22.4454 39.6279 22.3192 39.6279 22.0685C39.6446 22.069 39.6612 22.066 39.6768 22.0598C39.6923 22.0537 39.7064 22.0444 39.7182 22.0326C39.73 22.0208 39.7393 22.0067 39.7454 21.9912C39.7516 21.9756 39.7546 21.959 39.7541 21.9423C39.8803 21.9423 40.0065 21.8162 40.1326 21.69C40.1326 21.5638 39.8803 21.69 39.8803 21.8162C39.7541 21.8162 39.8803 21.9423 39.7541 21.9423C39.7541 21.8162 39.8803 21.69 39.8803 21.5638C39.8803 21.4376 39.6279 21.4376 39.6279 21.3115C39.6112 21.3119 39.5946 21.309 39.5791 21.3028C39.5636 21.2966 39.5495 21.2873 39.5377 21.2755C39.5259 21.2637 39.5166 21.2496 39.5104 21.2341C39.5043 21.2186 39.5013 21.202 39.5018 21.1853C39.0037 20.8068 38.6202 20.3038 38.2417 19.6746C38.1696 19.6091 38.1246 19.5191 38.1155 19.4222C37.8632 19.5484 37.9894 19.9203 37.737 20.0514C37.7203 20.0519 37.7037 20.0489 37.6882 20.0427C37.6727 20.0366 37.6586 20.0273 37.6468 20.0155C37.635 20.0037 37.6257 19.9896 37.6195 19.9741C37.6133 19.9586 37.6104 19.9419 37.6108 19.9252L37.4847 19.7991C37.4161 19.7311 37.3717 19.6424 37.3585 19.5467V19.4239L37.2323 19.2977V19.0454C37.1062 18.6668 37.2323 18.0376 37.2323 17.6608V17.4084V17.2823C37.2323 17.0299 37.4847 16.7842 37.4847 16.5269C37.5533 16.5949 37.5976 16.6836 37.6108 16.7792C37.6108 16.9054 37.6108 17.0316 37.737 17.0316C37.6108 17.1578 37.8632 17.2839 37.8632 17.5296C37.8632 17.6558 37.9894 17.6558 37.9894 17.782C37.9894 17.9082 38.1155 17.9082 38.1155 18.0343C38.2417 18.2867 38.4941 18.4128 38.6136 18.6635C38.7398 18.6635 38.7398 18.7897 38.8659 18.7897C38.9921 18.7897 38.9921 18.9159 39.1183 18.9159C39.1183 19.042 38.9921 19.042 38.8659 19.042C38.7398 19.1682 38.4874 19.1682 38.2367 19.042C38.363 19.2804 38.5318 19.4936 38.7348 19.6712V19.7974C39.1162 20.1742 39.5961 20.436 40.1193 20.5528C40.2455 20.5528 40.2455 20.4266 40.3717 20.3004C40.3884 20.3009 40.405 20.2979 40.4205 20.2918C40.436 20.2856 40.4501 20.2763 40.4619 20.2645C40.4737 20.2527 40.483 20.2386 40.4892 20.2231C40.4954 20.2076 40.4983 20.191 40.4979 20.1743C40.4979 20.0481 40.624 20.0481 40.624 19.9219C40.7502 19.9219 40.7502 19.7958 40.8764 19.7958C40.8764 19.6696 41.0025 19.6696 41.1287 19.5434C41.2549 19.5434 41.3811 19.2911 41.5072 19.2911C41.5914 19.207 41.6755 19.1229 41.7596 19.0387H41.8858C41.8858 18.9125 42.1381 18.9125 42.1381 18.9125C42.2643 18.7864 42.5166 18.6602 42.6361 18.534V15.5159C42.7623 15.642 42.6361 15.642 42.6361 15.7682V17.7836H43.1342C43.2662 17.8055 43.394 17.8481 43.5127 17.9098V18.2883L43.1342 18.4145C43.1342 18.5407 42.7557 18.4145 42.7557 18.5407C42.7557 18.6668 42.6295 18.6668 42.6295 18.793C42.7557 18.793 42.6295 18.6668 42.6295 18.6668H42.7557V18.5407C42.7557 18.5407 42.6295 18.4145 42.6295 18.5407C42.5033 18.5407 42.6295 18.4145 42.5033 18.4145C42.6295 18.2883 42.6295 18.2883 42.7557 18.2883C42.8237 18.2197 42.9123 18.1754 43.008 18.1622L43.1342 18.036C43.2604 18.036 43.2604 17.9098 43.3865 17.9098L43.6389 17.6575C43.7075 17.5895 43.7518 17.5008 43.765 17.4051C43.8912 17.4051 43.6389 17.5313 43.765 17.5313C43.7646 17.548 43.7675 17.5646 43.7737 17.5801C43.7799 17.5956 43.7892 17.6097 43.801 17.6215C43.8128 17.6333 43.8269 17.6426 43.8424 17.6488C43.8579 17.655 43.8745 17.6579 43.8912 17.6575C43.8912 17.6575 43.765 17.5313 43.8912 17.5313C44.0174 17.5313 43.8912 17.4051 43.8912 17.4051C43.8912 17.279 44.0174 17.5313 44.0174 17.4051C44.0174 17.4051 43.8912 17.279 44.0174 17.279C44.0174 17.1528 43.8912 17.279 43.8912 17.1528C43.8912 16.9004 43.8912 16.9004 44.1436 16.7743C44.1436 16.6481 44.1436 16.5219 44.2697 16.5219V16.3958L44.3959 16.2696V16.0189C44.4044 15.9504 44.3975 15.8808 44.3757 15.8154C44.3538 15.7499 44.3176 15.6901 44.2697 15.6404L44.1436 15.5142V15.2635C44.0174 15.1374 43.8912 15.1374 43.8912 15.0112C43.6389 15.0112 43.6389 14.7588 43.3932 14.7588C43.267 14.885 43.3932 15.0112 43.3932 15.1374V16.6481V17.2773C43.4099 17.2768 43.4265 17.2798 43.442 17.286C43.4575 17.2921 43.4716 17.3014 43.4834 17.3132C43.4952 17.325 43.5045 17.3391 43.5107 17.3546C43.5169 17.3702 43.5198 17.3868 43.5193 17.4035H43.6621V17.782L43.5359 17.6558V15.6404V15.1423V14.885V14.387V12.4927V12.3666C43.5364 12.3499 43.5335 12.3332 43.5273 12.3177C43.5211 12.3022 43.5118 12.2881 43.5 12.2763C43.4882 12.2645 43.4741 12.2552 43.4586 12.2491C43.4431 12.2429 43.4265 12.2399 43.4098 12.2404C43.2836 12.2404 43.4098 12.4927 43.2836 12.6189C43.4098 12.6189 43.2836 12.4927 43.2836 12.4927C43.2836 12.4927 43.4098 12.7451 43.2836 12.7451V13.1153V13.2415V13.4938V17.7753C43.2836 17.523 43.5359 17.523 43.5359 17.3968C43.4098 17.523 43.6621 18.026 43.6621 18.026V17.7737L43.4098 17.6475C43.2836 17.7737 43.2836 17.7737 43.2836 17.8999C43.1574 17.8999 43.1574 18.1522 43.0313 18.1522V16.2696C43.0313 16.1434 42.9051 16.1434 43.0313 16.0172V13.8773V14.0035V14.1296V14.2558C43.0313 14.382 43.1574 14.6343 43.0313 14.885V17.1511C43.0313 17.2773 43.1574 17.4035 43.0313 17.5296C42.9051 17.5296 42.9051 17.4035 42.9051 17.2773V17.025V11.1082C42.7789 10.982 42.5266 11.1082 42.407 11.1082V11.7374C42.2809 11.7374 42.407 11.6112 42.407 11.485V11.1082C42.407 10.982 42.2809 11.1082 42.2809 11.2343C42.1547 11.1082 41.7828 11.2343 41.6517 11.1082C41.5255 11.1082 41.6517 11.2343 41.5255 11.2343C41.5255 11.3605 41.7778 11.3605 41.6517 11.4867C41.7778 11.6128 41.904 11.739 41.904 11.8652C42.0302 11.8652 42.0302 11.9914 42.1564 12.1175C42.2825 12.1175 42.1564 11.9914 42.2825 11.9914V12.2437V12.496V12.6172V15.0112V15.1374C42.1564 15.8927 42.2825 16.7743 42.1564 17.6558C42.1393 17.6395 42.1257 17.62 42.1164 17.5983C42.1071 17.5766 42.1023 17.5532 42.1023 17.5296C42.1023 17.506 42.1071 17.4827 42.1164 17.461C42.1257 17.4393 42.1393 17.4197 42.1564 17.4035V17.1511C42.1564 15.6404 42.1564 14.3803 42.2825 12.8696C42.2825 12.7434 42.1564 12.7434 42.1564 12.6172C42.1564 12.6172 41.904 12.6172 41.904 12.4911C41.904 12.3649 41.5255 12.2387 41.5255 12.2387V12.1192C41.5255 11.993 41.3993 11.8668 41.3993 11.7407L41.2732 11.6145V11.3588C41.2732 11.3588 41.147 11.3588 41.2732 11.2327H41.0059L40.8797 11.1065C40.4907 11.083 40.108 10.9978 39.7458 10.8542C39.6196 10.4756 39.7458 10.0988 39.7458 9.72026C40.1243 9.72026 40.5012 9.59409 40.8797 9.59409C41.0059 9.59409 41.2582 9.46792 41.3777 9.46792C41.5039 9.34175 41.5039 9.21558 41.6301 9.0894C41.6216 9.0209 41.6285 8.95136 41.6503 8.88586C41.6722 8.82037 41.7084 8.76059 41.7563 8.71089C41.5039 8.45855 41.2582 8.08169 41.2582 7.70317V6.95112C41.2582 6.82495 41.2582 6.82495 41.3844 6.82495V6.69878L41.5106 6.57261L41.6367 6.44644C41.7629 6.32026 41.8891 6.32026 41.8891 6.19409C42.2908 6.03778 42.7166 5.9524 43.1475 5.94175C43.415 5.96806 43.6732 6.05431 43.9028 6.19409L44.2814 6.57261C44.4075 6.69878 44.5337 6.82495 44.5337 6.95112C44.5332 6.96782 44.5362 6.98443 44.5424 6.99994C44.5486 7.01546 44.5578 7.02955 44.5696 7.04136C44.5814 7.05317 44.5955 7.06244 44.6111 7.06862C44.6266 7.0748 44.6432 7.07775 44.6599 7.0773C44.6599 7.32964 44.6599 7.45581 44.786 7.57534C43.5293 7.70815 43.277 7.95884 42.9001 8.33735ZM42.2709 5.56655C42.1447 5.56655 42.2709 5.44038 42.2709 5.56655C42.2709 5.56655 42.5233 5.69272 42.5233 5.56655C42.3971 5.56655 42.2709 5.44038 42.2709 5.56655C42.2709 5.44038 42.0186 5.56655 42.0186 5.56655H42.2709ZM42.0186 5.44038C41.8924 5.44038 41.8924 5.44038 41.8924 5.31421C41.7662 5.44038 41.5139 5.31421 41.3943 5.31421C41.2987 5.32742 41.21 5.37176 41.142 5.44038C41.2799 5.50191 41.4293 5.53371 41.5803 5.53371C41.7313 5.53371 41.8806 5.50191 42.0186 5.44038ZM41.64 5.56655C41.3877 5.56655 41.2615 5.56655 41.142 5.69273C41.0158 5.69273 40.8897 5.94507 40.7635 5.8189C40.8897 5.8189 40.8897 5.69273 41.0158 5.69273H40.8897C40.8901 5.67603 40.8872 5.65942 40.881 5.6439C40.8748 5.62839 40.8655 5.6143 40.8537 5.60249C40.8419 5.59068 40.8278 5.5814 40.8123 5.57522C40.7968 5.56905 40.7802 5.5661 40.7635 5.56655C40.6373 5.56655 40.7635 5.44038 40.7635 5.44038H40.6373C40.6373 5.44038 40.6373 5.69273 40.5111 5.69273C40.4979 5.78841 40.4536 5.87709 40.385 5.94507C40.2588 5.94507 40.1326 6.07124 40.1326 6.32358H40.0098V6.44976C39.9931 6.4493 39.9765 6.45225 39.961 6.45843C39.9454 6.46461 39.9313 6.47388 39.9195 6.48569C39.9077 6.4975 39.8985 6.51159 39.8923 6.52711C39.8861 6.54262 39.8831 6.55923 39.8836 6.57593C39.8836 6.7021 39.7574 6.82827 39.8836 6.82827C39.8669 6.82781 39.8503 6.83077 39.8348 6.83694C39.8193 6.84312 39.8052 6.8524 39.7934 6.86421C39.7816 6.87602 39.7723 6.89011 39.7661 6.90562C39.7599 6.92114 39.757 6.93775 39.7574 6.95444C39.7574 6.95444 39.8836 6.95444 39.7574 7.08062V7.33296L39.8836 7.45913V7.5853C39.8831 7.602 39.8861 7.61861 39.8923 7.63412C39.8985 7.64964 39.9077 7.66373 39.9195 7.67554C39.9313 7.68735 39.9454 7.69662 39.961 7.7028C39.9765 7.70898 39.9931 7.71193 40.0098 7.71147C40.0098 7.83765 40.2621 7.96382 40.1359 8.08999C40.2621 8.08999 40.2621 8.34233 40.3883 8.34233C40.3883 8.21616 40.5145 8.08999 40.5145 7.96382C40.4978 7.96428 40.4812 7.96133 40.4656 7.95515C40.4501 7.94897 40.436 7.93969 40.4242 7.92788C40.4124 7.91607 40.4031 7.90198 40.397 7.88647C40.3908 7.87095 40.3878 7.85434 40.3883 7.83765C40.3887 7.82095 40.3858 7.80434 40.3796 7.78883C40.3734 7.77331 40.3642 7.75922 40.3524 7.74741C40.3405 7.7356 40.3265 7.72633 40.3109 7.72015C40.2954 7.71397 40.2788 7.71102 40.2621 7.71147V6.95278C40.3883 6.82661 40.3883 6.70044 40.5145 6.57427C40.6562 6.41899 40.8249 6.29073 41.0125 6.19575L40.7602 6.4481C40.7606 6.46479 40.7577 6.4814 40.7515 6.49692C40.7453 6.51243 40.736 6.52652 40.7242 6.53833C40.7124 6.55014 40.6983 6.55942 40.6828 6.5656C40.6673 6.57177 40.6507 6.57473 40.634 6.57427C40.7758 6.41901 40.9445 6.29077 41.132 6.19575C41.3844 6.06958 41.6301 6.19575 42.0136 6.19575C41.8874 6.32192 42.2659 6.32192 42.1398 6.4481C42.0136 6.32192 41.7612 6.32192 41.5106 6.32192C41.4609 6.36983 41.4011 6.40603 41.3356 6.42786C41.2701 6.44969 41.2005 6.4566 41.132 6.4481C41.0059 6.57427 40.8797 6.57427 40.634 6.57427C40.634 6.70044 40.1359 6.82661 40.1359 6.95278V7.07896C40.1526 7.0785 40.1693 7.08145 40.1848 7.08763C40.2003 7.09381 40.2144 7.10308 40.2262 7.11489C40.238 7.1267 40.2473 7.14079 40.2534 7.15631C40.2596 7.17182 40.2626 7.18843 40.2621 7.20513H40.3883C40.5145 6.82661 40.8863 6.44976 41.2698 6.44976C41.396 6.44976 41.6483 6.44976 41.7679 6.57593C41.7679 6.57593 41.8941 6.7021 41.8941 6.57593C41.8774 6.57639 41.8607 6.57344 41.8452 6.56726C41.8297 6.56108 41.8156 6.5518 41.8038 6.53999C41.792 6.52818 41.7827 6.51409 41.7766 6.49858C41.7704 6.48306 41.7674 6.46645 41.7679 6.44976C41.8941 6.44976 41.8941 6.7021 42.0202 6.57593L41.8941 6.44976C41.8941 6.44976 42.0202 6.57593 42.0202 6.44976L41.8941 6.32358C42.0202 6.32358 42.1464 6.44976 42.0202 6.57593C42.2726 6.57593 42.3987 7.3313 42.2726 7.45747C42.2726 7.58364 42.2726 7.45747 42.1464 7.45747C42.1464 7.70981 41.8941 7.70981 42.0202 7.83599H42.1464C42.1464 7.96216 42.1464 7.96216 42.2726 7.96216C42.2543 7.97774 42.2397 7.99709 42.2297 8.01887C42.2196 8.04065 42.2144 8.06435 42.2144 8.08833C42.2144 8.11231 42.2196 8.13601 42.2297 8.15779C42.2397 8.17957 42.2543 8.19892 42.2726 8.2145C42.2721 8.19781 42.2751 8.1812 42.2812 8.16568C42.2874 8.15017 42.2967 8.13608 42.3085 8.12427C42.3203 8.11246 42.3344 8.10318 42.3499 8.097C42.3654 8.09082 42.382 8.08787 42.3987 8.08833V7.96216L42.5249 7.83599H42.6511V7.70981H42.7773V7.58364L42.9034 7.45747C42.903 7.44078 42.9059 7.42417 42.9121 7.40865C42.9183 7.39314 42.9276 7.37904 42.9394 7.36724C42.9512 7.35543 42.9653 7.34615 42.9808 7.33997C42.9963 7.33379 43.0129 7.33084 43.0296 7.3313V6.70044C43.0164 6.60476 42.972 6.51608 42.9034 6.4481V6.32192L42.7773 6.19575V6.06958L42.3987 5.69106C42.2726 5.69106 42.2726 5.69106 42.2726 5.56489C42.1464 5.56489 42.1464 5.56489 42.0202 5.43872C42.3987 5.43872 42.5183 5.69106 42.7756 5.81724C42.7756 5.94341 42.9018 5.94341 43.0279 6.06958C43.0279 6.06958 43.0279 6.19575 43.1541 6.06958C43.0279 5.94341 43.2803 6.06958 43.2803 5.94341C43.2807 5.92671 43.2778 5.9101 43.2716 5.89459C43.2654 5.87907 43.2562 5.86498 43.2443 5.85317C43.2325 5.84136 43.2184 5.83209 43.2029 5.82591C43.1874 5.81973 43.1708 5.81678 43.1541 5.81724C43.0279 5.81724 43.1541 5.94341 43.0279 5.94341C42.5949 5.72705 42.1231 5.59895 41.64 5.56655ZM42.6478 6.82495C42.5216 6.82495 42.6478 6.69878 42.5216 6.57261H42.3954C42.3959 6.55591 42.3929 6.5393 42.3867 6.52379C42.3806 6.50827 42.3713 6.49418 42.3595 6.48237C42.3477 6.47056 42.3336 6.46129 42.3181 6.45511C42.3026 6.44893 42.2859 6.44598 42.2692 6.44644H42.1431C42.1264 6.44689 42.1098 6.44394 42.0943 6.43776C42.0787 6.43158 42.0646 6.42231 42.0528 6.4105C42.041 6.39869 42.0318 6.3846 42.0256 6.36908C42.0194 6.35357 42.0164 6.33696 42.0169 6.32026C41.8772 6.26132 41.7261 6.23465 41.5747 6.24223C41.4233 6.24981 41.2755 6.29145 41.1425 6.36406C41.0094 6.43666 40.8944 6.53835 40.8061 6.66155C40.7178 6.78475 40.6584 6.92629 40.6323 7.07563C40.6323 7.07563 40.6323 7.45415 40.7585 7.57368H41.0059C41.1016 7.56047 41.1902 7.51613 41.2582 7.44751C41.3844 7.44751 41.6367 7.32134 41.7563 7.32134C42.0086 7.32134 42.1348 7.57368 42.3855 7.57368C42.6478 7.45581 42.7739 7.20347 42.6478 6.82661V6.82495ZM40.7585 6.82495C40.7768 6.71757 40.8207 6.61621 40.8867 6.52949C40.9526 6.44277 41.0385 6.37326 41.137 6.3269C41.2632 6.3269 41.2632 6.20073 41.3894 6.20073C41.137 6.32192 40.8847 6.4481 40.7585 6.82661V6.82495ZM43.9128 8.96489C44.0165 9.29018 44.0592 9.6318 44.039 9.97261H44.6582C44.7844 9.97261 45.1563 9.97261 45.0367 9.84644C45.0367 9.97261 45.0367 9.84644 44.9106 9.84644H44.029C44.029 9.72026 44.1552 9.84644 44.2814 9.84644H44.5337C44.786 9.84644 44.9122 9.84644 45.0317 9.72026H44.2764C44.1502 9.72026 44.1502 9.72026 44.024 9.59409H45.0317V9.46294C45.0317 9.33677 45.0317 9.33677 44.9056 9.33677C45.0317 9.33677 44.9056 9.2106 44.9056 9.08442H44.4075C44.2814 9.08442 44.029 9.08442 43.9095 8.95825C44.1618 8.95825 44.4075 9.08442 44.5387 9.08442H44.791C44.791 9.08442 45.0434 9.2106 45.0434 9.08442C44.537 9.09273 44.2847 8.96489 43.9062 8.96489H43.9128ZM45.9282 17.1495C45.9115 17.149 45.8949 17.152 45.8794 17.1581C45.8639 17.1643 45.8498 17.1736 45.838 17.1854C45.8262 17.1972 45.8169 17.2113 45.8107 17.2268C45.8046 17.2423 45.8016 17.2589 45.8021 17.2756C45.7365 17.2799 45.6748 17.3079 45.6284 17.3543C45.582 17.4007 45.554 17.4625 45.5497 17.528H45.8021C46.0844 17.2617 46.3376 16.9662 46.5574 16.6464C46.6836 16.3941 46.8098 16.2679 46.8098 16.0172C46.8098 15.8911 46.9359 15.7649 46.9359 15.6387C46.8031 16.2696 46.4246 16.6481 45.9216 17.1511L45.9282 17.1495ZM46.1806 18.7864C46.1806 18.9125 46.0544 18.9125 46.1806 18.7864C46.0544 18.9125 45.9282 19.0387 45.9282 19.1649L45.6692 19.4239V19.55L45.5431 19.6762C45.4169 19.8024 45.1646 20.0547 45.045 20.0547L44.9189 20.1809H44.7927V20.3071C44.6665 20.4333 44.6665 20.4333 44.5403 20.4333C44.288 20.6856 43.9111 20.8118 43.6588 20.9313C43.5326 20.9313 43.5326 21.0575 43.4065 21.0575C43.2803 21.1836 43.1541 21.1836 43.1541 21.3098C43.0279 21.3098 43.0279 21.3098 43.0279 21.436C42.9439 21.5202 42.8598 21.6043 42.7756 21.6883C42.7589 21.6879 42.7423 21.6908 42.7268 21.697C42.7113 21.7032 42.6972 21.7125 42.6854 21.7243C42.6735 21.7361 42.6643 21.7502 42.6581 21.7657C42.6519 21.7812 42.649 21.7978 42.6494 21.8145L42.5233 21.9407L42.2709 22.193C42.1447 22.3192 42.0186 22.4454 42.0186 22.5715V22.4454L42.3971 22.0668C42.5388 21.9115 42.7075 21.7833 42.8951 21.6883C43.2879 21.429 43.7104 21.2177 44.1535 21.0591C44.2797 20.933 44.2797 20.933 44.4059 20.933C44.4226 20.9334 44.4392 20.9305 44.4547 20.9243C44.4702 20.9181 44.4843 20.9088 44.4961 20.897C44.5079 20.8852 44.5172 20.8711 44.5234 20.8556C44.5295 20.8401 44.5325 20.8235 44.532 20.8068C45.2874 19.9252 45.7904 19.4222 46.169 18.7914L46.1806 18.7864ZM46.1806 18.7864C46.0544 18.7864 46.0544 18.9125 46.1806 18.7864C46.0544 18.9125 45.9282 18.9125 45.9282 19.0387C45.8596 19.1067 45.8153 19.1954 45.8021 19.2911H45.6759V19.4239H45.5497V19.55C45.3655 19.746 45.1535 19.9138 44.9205 20.0481C44.7943 20.1743 44.6682 20.1743 44.6682 20.3004C44.5725 20.3137 44.4838 20.358 44.4158 20.4266C44.3991 20.4262 44.3825 20.4291 44.367 20.4353C44.3515 20.4415 44.3374 20.4507 44.3256 20.4625C44.3138 20.4744 44.3045 20.4884 44.2983 20.504C44.2922 20.5195 44.2892 20.5361 44.2897 20.5528H44.1602L44.034 20.679C43.9078 20.679 43.9078 20.679 43.7817 20.8051C43.6555 20.9313 43.5293 20.9313 43.4031 21.0575C43.277 21.0575 43.277 21.1836 43.1508 21.1836H43.0246C43.0251 21.2003 43.0221 21.2169 43.0159 21.2325C43.0098 21.248 43.0005 21.2621 42.9887 21.2739C42.9769 21.2857 42.9628 21.295 42.9473 21.3011C42.9318 21.3073 42.9151 21.3103 42.8984 21.3098H42.7723V21.436H42.6461L42.5199 21.5622C42.6461 21.5622 42.6461 21.436 42.7723 21.436C43.1651 21.1767 43.5876 20.9655 44.0307 20.8068C44.0474 20.8072 44.064 20.8043 44.0795 20.7981C44.095 20.7919 44.1091 20.7827 44.1209 20.7709C44.1327 20.759 44.142 20.7449 44.1482 20.7294C44.1544 20.7139 44.1573 20.6973 44.1568 20.6806H44.283C44.5354 20.5544 44.7811 20.3021 45.0384 20.1826C45.2907 19.9302 45.5364 19.8041 45.7938 19.5534C45.9199 19.0553 46.0461 18.9242 46.1723 18.798L46.4246 18.5457C46.4413 18.5461 46.4579 18.5432 46.4734 18.537C46.489 18.5308 46.503 18.5215 46.5149 18.5097C46.5267 18.4979 46.5359 18.4838 46.5421 18.4683C46.5483 18.4528 46.5512 18.4362 46.5508 18.4195C46.5508 18.4195 46.677 18.2933 46.5508 18.2933C46.4246 18.4112 46.1739 18.5374 46.1739 18.7897L46.1806 18.7864ZM46.4329 18.534C46.5015 18.4661 46.5459 18.3774 46.5591 18.2817C46.4246 18.4112 46.3001 18.5374 46.4246 18.5374L46.4329 18.534ZM39.1282 21.3048C39.1282 21.1787 39.1282 21.1787 39.0021 21.1787C39.0012 21.1951 39.0036 21.2115 39.0091 21.2269C39.0147 21.2424 39.0233 21.2566 39.0345 21.2687C39.0456 21.2807 39.0591 21.2905 39.074 21.2972C39.089 21.304 39.1052 21.3077 39.1216 21.3082L39.1282 21.3048ZM37.6175 17.0233C37.7437 17.0233 37.7437 17.1495 37.8698 17.1495C37.9385 17.2174 37.9828 17.3061 37.996 17.4018C37.7437 17.2756 37.6175 17.1495 37.6175 17.0233C37.4913 16.8971 37.3651 16.8971 37.3651 16.7709C37.239 16.7709 37.239 16.5186 37.1128 16.5186C37.239 16.6448 37.239 16.6448 37.239 16.7709C37.2557 16.7705 37.2723 16.7734 37.2878 16.7796C37.3033 16.7858 37.3174 16.7951 37.3292 16.8069C37.341 16.8187 37.3503 16.8328 37.3565 16.8483C37.3627 16.8638 37.3656 16.8804 37.3651 16.8971C37.3647 16.9138 37.3676 16.9304 37.3738 16.9459C37.38 16.9615 37.3893 16.9755 37.4011 16.9874C37.4129 16.9992 37.427 17.0084 37.4425 17.0146C37.458 17.0208 37.4746 17.0237 37.4913 17.0233L37.8698 17.4018C37.8865 17.4013 37.9031 17.4043 37.9187 17.4105C37.9342 17.4167 37.9483 17.4259 37.9601 17.4377C37.9719 17.4496 37.9812 17.4636 37.9873 17.4792C37.9935 17.4947 37.9965 17.5113 37.996 17.528C37.8698 17.528 37.8698 17.4018 37.7437 17.2756C37.7437 17.4018 37.8698 17.4018 37.8698 17.528C37.6175 17.4018 37.4913 17.1495 37.3718 17.0299C37.3885 17.0295 37.4051 17.0324 37.4206 17.0386C37.4361 17.0448 37.4502 17.0541 37.462 17.0659C37.4738 17.0777 37.4831 17.0918 37.4893 17.1073C37.4955 17.1228 37.4984 17.1394 37.498 17.1561L37.6241 17.2823C37.498 17.0299 37.2456 16.9038 37.1261 16.6531C37.1261 16.6531 37.1261 16.5269 36.9999 16.6531C36.9995 16.6698 37.0024 16.6864 37.0086 16.7019C37.0148 16.7174 37.024 16.7315 37.0358 16.7433C37.0477 16.7551 37.0618 16.7644 37.0773 16.7706C37.0928 16.7768 37.1094 16.7797 37.1261 16.7792C37.1261 17.1578 37.5046 17.2773 37.5046 17.5346C37.7569 17.6608 37.8831 17.5346 38.1338 17.5346C38.1338 17.4084 38.0076 17.4084 37.8815 17.2823L37.2523 16.6531C37.248 16.5876 37.22 16.5258 37.1736 16.4794C37.1271 16.433 37.0654 16.405 36.9999 16.4007C36.9999 16.4007 36.9999 16.2746 36.8737 16.4007C37.2323 16.5219 37.3535 16.7676 37.6108 17.0266L37.6175 17.0233ZM39.3806 18.9125C39.5067 18.9125 39.6329 19.0387 39.6329 18.9125C39.6162 18.913 39.5996 18.9101 39.5841 18.9039C39.5686 18.8977 39.5545 18.8884 39.5427 18.8766C39.5309 18.8648 39.5216 18.8507 39.5154 18.8352C39.5092 18.8197 39.5063 18.8031 39.5067 18.7864C39.6329 18.7864 39.7591 18.7864 39.6329 18.6602H39.7591V18.534C39.6329 18.534 39.6329 18.4079 39.5067 18.4079C39.5067 18.534 39.3806 18.534 39.2544 18.534V18.6602H39.1282C39.5001 18.9142 39.5001 18.9142 39.3739 18.9142L39.3806 18.9125ZM42.2775 16.8971C42.4037 16.7709 42.4037 16.8971 42.4037 16.8971C42.5299 17.0233 42.4037 16.7709 42.5299 16.7709V16.6448C42.4037 16.6448 42.5299 16.7709 42.2775 16.7709V16.8971ZM43.0329 16.3991V16.5252C43.2853 16.5252 43.0329 16.3991 43.1591 16.2729C43.1586 16.2896 43.1616 16.3062 43.1678 16.3217C43.1739 16.3372 43.1832 16.3513 43.195 16.3631C43.2068 16.3749 43.2209 16.3842 43.2364 16.3904C43.252 16.3966 43.2686 16.3995 43.2853 16.3991C43.2853 16.2729 43.2853 16.2729 43.4114 16.2729C43.4114 16.1467 43.4114 16.1467 43.2853 16.1467C43.1508 16.2696 43.0246 16.2696 43.0246 16.3958L43.0329 16.3991ZM43.6621 15.0112C43.6621 15.1374 43.9145 15.1374 43.7883 15.2635H44.0406C44.0411 15.2468 44.0381 15.2302 44.032 15.2147C44.0258 15.1992 44.0165 15.1851 44.0047 15.1733C43.9929 15.1615 43.9788 15.1522 43.9633 15.146C43.9478 15.1398 43.9312 15.1369 43.9145 15.1374C43.9145 15.1374 44.0406 15.2635 44.0406 15.1374C44.0239 15.1378 44.0073 15.1349 43.9918 15.1287C43.9763 15.1225 43.9622 15.1132 43.9504 15.1014C43.9386 15.0896 43.9293 15.0755 43.9231 15.06C43.917 15.0445 43.914 15.0279 43.9145 15.0112H43.6621ZM39.7508 10.1004C39.7503 10.0837 39.7533 10.0671 39.7595 10.0516C39.7656 10.0361 39.7749 10.022 39.7867 10.0102C39.7985 9.9984 39.8126 9.98912 39.8281 9.98294C39.8437 9.97676 39.8603 9.97381 39.877 9.97427C39.8686 10.191 39.9118 10.4067 40.0031 10.6035H40.1293C40.0031 10.6035 40.0031 10.6035 40.1293 10.4773H40.0098C40.0098 10.3511 40.1359 10.4773 40.1359 10.3511C40.0098 10.3511 40.0098 10.3511 40.0098 10.225C40.0098 10.0988 40.2621 10.225 40.1359 10.0988C39.8836 10.0988 39.7574 10.225 39.7574 10.0988C39.8836 10.0988 40.0098 10.225 40.0098 10.0988H39.7574C39.8836 9.97261 40.0098 10.0988 40.0098 9.97261H39.8836C40.0098 9.97261 40.0098 9.97261 40.1359 9.84644C40.0098 9.84644 39.8836 9.84644 40.0098 9.72026H40.1359C40.0098 9.72026 40.1359 9.59409 40.1359 9.59409C40.1359 9.46792 40.0098 9.59409 39.8836 9.46792C40.0098 9.46792 40.1359 9.46792 40.0098 9.34175C40.0967 9.19045 40.1404 9.01815 40.1359 8.8437C39.8836 8.8437 39.8836 8.8437 39.8836 8.96987C39.8836 8.8437 39.7574 8.96987 39.6313 8.96987H39.3789C39.1266 8.96987 39.0004 9.09605 38.7497 9.09605C38.7497 9.22222 38.8759 9.09605 38.8759 9.22222H38.7497C38.7497 9.34839 38.6235 9.34839 38.6235 9.47456C38.6235 9.60073 38.6235 9.47456 38.7497 9.60073V9.7269H39.5051C39.6313 9.7269 39.7574 9.7269 39.7574 9.85308H38.8759C38.7497 9.85308 38.7497 9.7269 38.6235 9.85308H39.3789C39.5051 9.85308 39.6313 9.85308 39.6313 9.97925H38.7497C38.6235 9.97925 38.6235 9.85308 38.4974 9.97925C38.8759 9.97925 38.9954 10.1054 39.3789 10.1054C39.5051 9.97925 39.7574 9.85308 39.7574 10.1054C39.6254 10.0836 39.4977 10.041 39.3789 9.97925C39.4283 10.0253 39.4872 10.0601 39.5514 10.081C39.6157 10.102 39.6837 10.1086 39.7508 10.1004ZM41.3877 6.19741C41.5139 6.19741 41.5139 6.19741 41.5139 6.07124C41.4973 6.07079 41.4809 6.07369 41.4655 6.07977C41.4501 6.08585 41.436 6.09497 41.4243 6.1066C41.4125 6.11823 41.4032 6.13213 41.3969 6.14745C41.3906 6.16277 41.3875 6.1792 41.3877 6.19575V6.19741ZM40.6323 6.57593C40.5062 6.82827 40.6323 7.07397 40.5062 7.3313C40.5153 7.42821 40.5603 7.51821 40.6323 7.58364C40.6323 7.45747 40.5062 7.3313 40.5062 7.20513V6.95278C40.5062 6.70044 40.6323 6.57427 40.6323 6.32358V6.57593ZM40.6323 7.20679C40.7585 7.20679 40.7585 6.82827 40.7585 6.95444C40.7585 7.08062 40.6323 7.0773 40.6323 7.20347V7.20679ZM40.7585 7.45913C40.7585 7.45913 40.7585 7.20679 40.6323 7.33296C40.6319 7.34965 40.6348 7.36626 40.641 7.38178C40.6472 7.39729 40.6565 7.41139 40.6683 7.42319C40.6801 7.435 40.6942 7.44428 40.7097 7.45046C40.7252 7.45664 40.7418 7.45959 40.7585 7.45913ZM40.8847 7.45913C40.8847 7.5853 40.6323 7.71147 40.7585 7.83765H41.0059C40.9892 7.8381 40.9726 7.83515 40.957 7.82897C40.9415 7.8228 40.9274 7.81352 40.9156 7.80171C40.9038 7.7899 40.8945 7.77581 40.8884 7.76029C40.8822 7.74478 40.8792 7.72817 40.8797 7.71147C41.0059 7.71147 41.0059 7.5853 41.0059 7.45913H40.8847ZM40.6323 7.71147C40.7585 7.71147 40.8847 7.5853 40.6323 7.71147V7.71147ZM40.6323 8.08999H40.7585C40.8847 8.08999 41.0108 8.08999 41.0108 7.96382C40.8847 7.96382 41.0108 7.83765 41.0108 7.83765H40.6323V8.08999ZM40.5078 8.46685H40.7602V8.34067H40.8863C40.6323 8.21118 40.5078 8.21118 40.5078 8.46685ZM40.7535 8.84536C40.7691 8.82714 40.7885 8.8125 40.8102 8.80247C40.832 8.79244 40.8557 8.78724 40.8797 8.78724C40.9037 8.78724 40.9274 8.79244 40.9492 8.80247C40.9709 8.8125 40.9903 8.82714 41.0059 8.84536H41.132C41.1316 8.82867 41.1345 8.81206 41.1407 8.79654C41.1469 8.78103 41.1562 8.76693 41.168 8.75513C41.1798 8.74332 41.1939 8.73404 41.2094 8.72786C41.2249 8.72168 41.2415 8.71873 41.2582 8.71919V8.46685C41.132 8.46685 41.0059 8.34067 40.8797 8.34067C40.8847 8.5897 40.6323 8.71421 40.7585 8.84038L40.7535 8.84536ZM40.375 8.59302V8.71919C40.5012 8.71919 40.6274 8.71919 40.6274 8.59302H40.5078L40.634 8.46685C40.634 8.59302 40.634 8.59302 40.3817 8.59302H40.375ZM43.272 8.84536C43.3982 8.84536 43.6505 8.97153 43.6505 8.84536C43.5293 8.84038 43.277 8.71421 43.277 8.84038L43.272 8.84536ZM40.2505 9.09771C40.3767 8.97153 40.3767 9.09771 40.5028 8.97153C40.5195 8.97199 40.5361 8.96904 40.5517 8.96286C40.5672 8.95668 40.5813 8.94741 40.5931 8.9356C40.6049 8.92379 40.6142 8.9097 40.6203 8.89418C40.6265 8.87867 40.6295 8.86206 40.629 8.84536C40.3816 8.84038 40.1293 8.96489 40.2555 9.09273L40.2505 9.09771ZM43.6621 10.3511H43.4098C43.2836 10.3511 43.2836 10.3511 43.2836 10.225C43.2836 10.225 43.5359 10.225 43.5359 10.0988H43.4098C43.5359 10.0988 43.6621 9.97261 43.7883 10.0988C43.7883 10.225 43.6621 10.0988 43.6621 10.3511C43.6617 10.3344 43.6646 10.3178 43.6708 10.3023C43.677 10.2868 43.6862 10.2727 43.6981 10.2609C43.7099 10.2491 43.724 10.2398 43.7395 10.2336C43.755 10.2274 43.7716 10.2245 43.7883 10.225C43.7883 9.7269 43.9145 9.34341 43.6621 8.84038H43.5359C43.4098 8.84038 43.4098 8.96655 43.2836 8.84038L43.4098 8.96655H43.1574C43.2836 8.96655 43.2836 9.4646 43.2836 9.8481C42.6544 9.97427 41.6467 9.8481 40.8913 9.8481C40.7651 9.8481 40.639 9.72192 40.639 9.8481H42.9051C42.9051 9.8481 43.1574 9.8481 43.1574 9.97427H40.7585C41.3877 10.1004 42.3954 9.97427 42.8984 9.97427H43.3965C43.3965 10.2266 43.3965 10.3528 43.2703 10.4723H43.5227C43.506 10.4728 43.4894 10.4698 43.4738 10.4636C43.4583 10.4575 43.4442 10.4482 43.4324 10.4364C43.4206 10.4246 43.4113 10.4105 43.4052 10.395C43.399 10.3794 43.396 10.3628 43.3965 10.3461C43.4128 10.3632 43.4323 10.3768 43.454 10.3861C43.4757 10.3954 43.4991 10.4002 43.5227 10.4002C43.5463 10.4002 43.5696 10.3954 43.5913 10.3861C43.613 10.3768 43.6326 10.3632 43.6488 10.3461C43.7817 10.2266 43.7816 10.3511 43.6621 10.3511ZM40.1293 9.46294C40.1973 9.39432 40.286 9.34998 40.3817 9.33677C40.3817 9.2106 40.3816 9.2106 40.5078 9.2106C40.634 9.2106 40.5078 9.33677 40.634 9.33677C40.634 9.2106 40.634 9.2106 40.5078 9.2106C40.5078 9.08442 40.5078 9.08442 40.3817 9.08442H40.5078C40.2555 9.09273 40.0098 9.34507 40.1293 9.46294ZM40.1293 9.84145C40.2555 9.84145 40.3817 9.84146 40.3817 9.71528H40.2555C40.2722 9.71574 40.2888 9.71279 40.3043 9.70661C40.3198 9.70043 40.3339 9.69116 40.3457 9.67935C40.3575 9.66754 40.3668 9.65345 40.373 9.63793C40.3792 9.62242 40.3821 9.6058 40.3817 9.58911H40.2555C40.3816 9.46294 40.3817 9.58911 40.3817 9.46294H40.2555L40.3817 9.33677C40.2555 9.59575 40.0098 9.59575 40.1293 9.8481V9.84145ZM43.1508 9.34341C42.6527 9.34341 42.1431 9.46958 41.7662 9.46958V9.59575H41.2682C41.142 9.59575 41.142 9.21724 41.0158 9.21724C40.8897 9.21724 40.6323 8.96489 40.6323 8.96489H43.277C43.3013 8.99614 43.3176 9.03292 43.3243 9.07197C43.3311 9.11102 43.3281 9.15113 43.3156 9.18874C43.3031 9.22635 43.2815 9.2603 43.2528 9.28757C43.224 9.31484 43.189 9.33459 43.1508 9.34507V9.34341ZM39.9965 9.97261C40.1227 9.97261 40.1227 10.0988 40.1227 10.225C40.2488 10.225 40.375 10.0988 40.2488 9.97261H40.375C40.2488 9.97261 40.375 9.97261 40.375 9.84644C40.3269 9.89282 40.2694 9.92826 40.2064 9.95032C40.1433 9.97238 40.0763 9.98055 40.0098 9.97427L39.9965 9.97261ZM38.8626 9.97261H38.7364C38.7364 9.97261 38.6103 9.84644 38.6103 9.97261H38.8626ZM39.2411 9.97261H38.9888C38.9888 9.97261 39.2478 10.1004 39.2478 9.97427L39.2411 9.97261ZM44.7811 10.0988C45.1596 10.0988 44.6549 9.97261 44.6549 10.0988H44.7811ZM38.6103 10.0988C38.7364 9.97261 38.4841 10.0988 38.6103 10.0988V10.0988ZM44.1502 10.0988C44.024 10.0988 43.8979 9.97261 43.8979 10.0988H44.1502ZM43.2703 10.0988H42.8918C42.7656 10.0988 42.6395 10.0988 42.6395 10.225H43.1375C43.1375 10.0988 43.3899 10.225 43.2637 10.0988H43.2703ZM40.883 10.0988H40.7568C40.7568 10.0988 40.8847 10.2266 40.8847 10.1004L40.883 10.0988ZM44.7877 10.225H44.9139C44.9139 10.225 44.9139 10.0988 44.7877 10.225ZM42.2626 10.225H41.1287C41.64 10.1004 42.0186 10.2266 42.2692 10.2266L42.2626 10.225ZM39.3739 10.2266C39.2478 10.2266 38.9954 10.1004 38.8759 10.2266C38.9954 10.2266 39.2478 10.3511 39.3739 10.2266ZM39.5001 10.2266C39.6263 10.2266 39.7525 10.2266 39.7525 10.3528C39.6263 10.3528 39.3739 10.2266 39.5001 10.2266C39.6263 10.3528 39.6263 10.3528 39.7525 10.3528V10.2266H39.5001ZM40.2555 10.3528C40.255 10.3361 40.258 10.3195 40.2642 10.304C40.2703 10.2884 40.2796 10.2744 40.2914 10.2625C40.3032 10.2507 40.3173 10.2415 40.3328 10.2353C40.3483 10.2291 40.365 10.2262 40.3817 10.2266C40.2555 10.2266 40.1293 10.2266 40.2555 10.3511V10.3528ZM40.2555 10.479C40.3816 10.3528 40.2555 10.3528 40.2555 10.3528C40.2722 10.3532 40.2888 10.3503 40.3043 10.3441C40.3198 10.3379 40.3339 10.3287 40.3457 10.3168C40.3575 10.305 40.3668 10.2909 40.373 10.2754C40.3792 10.2599 40.3821 10.2433 40.3817 10.2266C40.2555 10.3528 40.1293 10.3528 40.2555 10.6051C40.3816 10.6051 40.5078 10.3528 40.5078 10.3528C40.3816 10.4773 40.3816 10.4773 40.2555 10.4773V10.479ZM43.1524 10.3528H43.2786C43.2786 10.3528 43.2786 10.2266 43.1524 10.3528C43.277 10.3511 43.1508 10.2266 43.1508 10.3511L43.1524 10.3528ZM43.9078 10.479C44.034 10.3528 44.1602 10.3528 43.9078 10.479C43.6555 10.3528 44.1602 10.3528 44.034 10.3528C43.9062 10.2266 43.7817 10.3511 43.9062 10.4773L43.9078 10.479ZM39.1233 10.3544C38.8709 10.3544 39.2494 10.4806 39.1233 10.3544V10.3544ZM40.8863 10.3544C40.8863 10.2283 40.7602 10.3544 40.8863 10.3544C41.0125 10.3544 41.2649 10.4806 41.3844 10.3544H40.8863ZM39.6263 10.4806L39.3739 10.3544C39.3739 10.4773 39.5001 10.4773 39.6246 10.4773L39.6263 10.4806ZM42.5233 10.3544H42.1447C42.2692 10.3511 42.5216 10.4773 42.5216 10.3511L42.5233 10.3544ZM40.7602 10.4806H41.2582C41.2582 10.4806 41.3844 10.6068 41.3844 10.4806C41.137 10.3511 40.8847 10.3511 40.7585 10.4773L40.7602 10.4806ZM43.6621 10.4773C44.0406 10.3511 43.4098 10.4773 43.6621 10.4773V10.4773ZM42.9067 10.6035C42.9753 10.612 43.0448 10.6051 43.1103 10.5832C43.1758 10.5614 43.2356 10.5252 43.2853 10.4773C43.0246 10.6035 42.9001 10.4773 42.9001 10.6035H42.9067ZM43.4048 10.6035C43.531 10.4773 43.6571 10.6035 43.7833 10.4773C43.6621 10.6035 43.277 10.4773 43.4031 10.6035H43.4048ZM40.2571 10.982C40.2738 10.9824 40.2904 10.9795 40.306 10.9733C40.3215 10.9671 40.3356 10.9579 40.3474 10.946C40.3592 10.9342 40.3685 10.9201 40.3746 10.9046C40.3808 10.8891 40.3838 10.8725 40.3833 10.8558C40.2571 10.8558 40.2571 10.7296 40.3833 10.7296C40.3838 10.7129 40.3808 10.6963 40.3746 10.6808C40.3685 10.6653 40.3592 10.6512 40.3474 10.6394C40.3356 10.6276 40.3215 10.6183 40.306 10.6121C40.2904 10.606 40.2738 10.603 40.2571 10.6035V10.982ZM42.2775 14.2558V14.0035V13.8773V10.723C42.1514 10.723 42.2775 10.8492 42.2775 10.9753V14.5082C42.3954 14.6327 42.2692 14.2558 42.2692 14.2558H42.2775ZM40.3817 10.982C40.3817 11.1082 40.3816 11.3605 40.5078 11.3605C40.5078 11.2343 40.5078 11.2343 40.634 11.1082V10.982C40.634 10.982 40.7602 10.8558 40.634 10.8558C40.6345 10.8725 40.6315 10.8891 40.6253 10.9046C40.6191 10.9201 40.6099 10.9342 40.5981 10.946C40.5862 10.9579 40.5722 10.9671 40.5566 10.9733C40.5411 10.9795 40.5245 10.9824 40.5078 10.982C40.5078 10.982 40.634 10.8558 40.5078 10.8558C40.5078 10.982 40.5078 11.1082 40.3817 10.982C40.5078 11.1082 40.5078 10.982 40.3817 10.982ZM41.64 13.879V10.982V13.879ZM40.7585 11.3605C40.6323 11.4867 40.6323 11.739 40.7585 11.739C40.7585 11.6128 40.8847 11.6128 40.7585 11.4867C40.7585 11.4867 40.7585 11.6128 40.6323 11.4867C40.7585 11.6128 40.8847 11.4867 40.7585 11.3605ZM40.6323 11.2343C40.6323 11.3588 40.7585 11.3588 40.6323 11.2327V11.2343ZM40.8847 11.8635C40.8847 11.7374 41.0108 11.7374 40.8847 11.6112C40.8847 11.7374 40.8847 11.6112 40.7585 11.6112C40.7585 11.7374 40.7585 11.9897 40.8847 11.9897C41.0108 11.8635 41.137 11.7374 40.8847 11.8635C41.0059 11.8635 41.0059 11.7374 40.8847 11.8635ZM41.137 12.1192V11.8635C41.137 11.8635 41.2632 11.7374 41.137 11.7374C41.137 11.8635 40.8847 12.1192 41.137 12.1192ZM42.7739 13.2531C42.9001 13.2531 43.0263 13.2531 43.0263 13.1269C42.9001 13.2481 42.7739 13.1153 42.7739 13.2481V13.2531ZM42.9001 13.3792C43.0263 13.3792 43.1524 13.3792 43.1524 13.2531C42.9001 13.2481 42.9001 13.2481 42.9001 13.3743V13.3792ZM43.0263 13.5054C43.0263 13.6316 43.4048 13.6316 43.4048 13.5054C43.2786 13.5054 43.1525 13.5054 43.2786 13.3792C43.1508 13.3743 43.0246 13.3743 43.0246 13.5004L43.0263 13.5054ZM43.1524 13.7578C43.2022 13.8057 43.2619 13.8419 43.3274 13.8637C43.3929 13.8855 43.4625 13.8924 43.531 13.8839C43.5314 13.8672 43.5285 13.8506 43.5223 13.8351C43.5161 13.8196 43.5068 13.8055 43.495 13.7937C43.4832 13.7819 43.4691 13.7726 43.4536 13.7664C43.4381 13.7603 43.4215 13.7573 43.4048 13.7578C43.4031 13.6266 43.277 13.6266 43.1508 13.7528L43.1524 13.7578ZM42.3971 14.387C42.5233 14.387 42.3971 14.1346 42.3971 14.2608C42.5216 14.2558 42.3954 14.382 42.3954 14.382L42.3971 14.387ZM43.7817 14.5131C43.7817 14.387 43.9078 14.6393 43.9078 14.5131C43.9078 14.5131 43.9078 14.2608 43.7817 14.2608H43.6621C43.6621 14.382 43.6621 14.5082 43.7817 14.5082V14.5131ZM42.3971 14.5131C42.4138 14.5136 42.4304 14.5106 42.4459 14.5045C42.4614 14.4983 42.4755 14.489 42.4873 14.4772C42.4991 14.4654 42.5084 14.4513 42.5146 14.4358C42.5208 14.4203 42.5237 14.4037 42.5233 14.387H42.3971V14.5131ZM42.5233 14.7655C42.5233 14.6393 42.5233 14.5131 42.3971 14.6393C42.5216 14.6327 42.3954 14.7588 42.5216 14.7588L42.5233 14.7655ZM44.034 14.7655C44.034 14.6393 43.9078 14.6393 43.7817 14.6393C43.713 14.7073 43.6687 14.796 43.6555 14.8917C43.7816 14.8917 43.9078 15.0178 44.034 14.7655C43.9078 14.8917 43.9078 14.7655 44.034 14.7655C43.9078 14.7655 43.9078 14.8917 44.034 14.7655ZM42.5233 15.5208C42.5233 15.647 42.5233 15.8994 42.6494 15.8994C42.5233 15.8994 42.6494 15.7732 42.6494 15.7732L42.5233 15.5208C42.5233 15.3947 42.6494 15.1423 42.5233 15.0228V15.5208ZM43.531 15.5208C43.6571 15.5208 43.6571 15.647 43.7833 15.647V15.5208C43.6571 15.5208 43.6571 15.5209 43.7833 15.3947C43.7153 15.3261 43.6266 15.2817 43.531 15.2685C43.6621 15.3897 43.6621 15.3897 43.5293 15.5142L43.531 15.5208ZM43.6621 15.7715C43.6621 15.6454 43.5359 15.6454 43.4098 15.6454C43.4098 15.7715 43.5359 15.7715 43.6621 15.8977C43.7816 15.7715 43.6621 15.7715 43.6621 15.7715ZM47.1899 16.3958V17.4035C47.1904 17.4202 47.1875 17.4368 47.1813 17.4523C47.1751 17.4678 47.1658 17.4819 47.154 17.4937C47.1422 17.5055 47.1281 17.5148 47.1126 17.521C47.0971 17.5271 47.0805 17.5301 47.0638 17.5296V17.782C47.0638 17.9082 46.9376 17.9082 46.9376 18.1605C46.9543 18.161 46.9709 18.158 46.9864 18.1518C47.0019 18.1456 47.016 18.1364 47.0278 18.1246C47.0396 18.1128 47.0489 18.0987 47.0551 18.0831C47.0613 18.0676 47.0642 18.051 47.0638 18.0343C47.1117 17.9846 47.1479 17.9248 47.1697 17.8594C47.1915 17.7939 47.1985 17.7243 47.1899 17.6558C47.2944 17.1594 47.3367 16.6519 47.3161 16.1451C47.1817 16.0189 47.1817 16.3958 47.1817 16.3958H47.1899ZM47.3161 16.3958C47.3393 17.0058 47.2092 17.612 46.9376 18.1588C47.0638 18.1588 47.1899 17.7803 47.1899 17.6608C47.1899 17.5413 47.19 17.4084 47.3161 17.4084C47.4423 17.0299 47.4423 16.5269 47.4423 16.0239V15.8977C47.3145 16.0189 47.3145 16.2696 47.3145 16.3958H47.3161ZM36.4869 16.3958V16.1451C36.3574 16.1451 36.3574 16.3958 36.477 16.3958H36.4869ZM47.444 16.3958V16.1451C47.4323 16.2696 47.3145 16.5219 47.4323 16.3958H47.444ZM37.1178 16.3958L36.9916 16.2696C36.9817 16.3958 36.9816 16.5219 37.1062 16.3958H37.1178ZM36.4886 16.6481C36.4886 16.7743 36.4886 16.9004 36.6148 16.9004C36.6148 16.7743 36.6148 16.6481 36.4886 16.6481ZM46.6886 16.6481C46.6886 16.5219 46.8148 16.5219 46.8148 16.2696C46.8031 16.3958 46.5508 16.5219 46.677 16.6481H46.6886ZM42.6577 16.6481C42.6577 16.7743 42.6577 16.7743 42.7839 16.9004C42.7707 16.8048 42.7263 16.7161 42.6577 16.6481C42.7839 16.7743 42.7839 16.7743 42.7839 16.9004C42.7839 16.7743 42.7839 16.7743 42.9101 16.7743C42.9101 16.6481 42.9101 16.5219 42.7839 16.5219C42.7664 16.52 42.7487 16.5219 42.732 16.5274C42.7153 16.5329 42.6999 16.542 42.687 16.5539C42.6741 16.5659 42.6639 16.5805 42.6572 16.5968C42.6504 16.613 42.6472 16.6305 42.6478 16.6481H42.6577ZM43.0346 16.6481C43.1608 16.6481 42.9084 16.5219 43.0346 16.6481V16.6481ZM46.0544 17.3968C45.9282 17.3968 45.9282 17.3968 45.9282 17.523H46.3067C46.3067 17.3968 46.5591 17.3968 46.4329 17.2707C46.4329 17.3968 46.4329 17.3968 46.3067 17.3968C46.3067 17.3968 46.1806 17.523 46.1806 17.3968C46.3358 17.2551 46.4641 17.0863 46.5591 16.8988C46.5459 16.9945 46.5015 17.0831 46.4329 17.1511L46.3067 17.2773L46.1806 17.4035C46.1806 17.4035 46.1806 17.5296 46.0544 17.4035C46.1806 17.4035 46.1806 17.2773 46.3067 17.1511C46.3067 17.025 46.4329 17.025 46.4329 16.8988C46.4329 16.7726 46.5591 16.7726 46.5591 16.6464C46.4341 16.9266 46.261 17.1828 46.0478 17.4035L46.0544 17.3968ZM36.7293 16.7676C36.6031 16.7676 36.7293 16.9004 36.7293 16.7676V16.7676ZM36.3508 16.8938C36.3574 17.0266 36.477 17.0266 36.3574 16.9004L36.3508 16.8938ZM36.6031 17.02C36.477 17.02 36.6031 16.8938 36.477 16.8938C36.6031 17.0266 36.6031 17.1511 36.6031 17.0266V17.02ZM36.7293 17.1461C36.7293 17.02 36.7293 17.02 36.6031 16.8938C36.7293 17.0266 36.7293 17.0266 36.7293 17.1511V17.1461ZM36.477 17.1461C36.477 17.02 36.477 17.02 36.3508 17.02C36.3679 17.0195 36.385 17.0226 36.4008 17.029C36.4167 17.0355 36.431 17.0452 36.4429 17.0576C36.4548 17.07 36.464 17.0847 36.4698 17.1008C36.4757 17.1169 36.4781 17.134 36.477 17.1511V17.1461ZM36.3508 17.1461C36.2246 17.1511 36.3574 17.2773 36.3574 17.1511L36.3508 17.1461ZM36.6015 17.3985C36.6015 17.5247 36.6015 17.5247 36.7276 17.5247C36.8538 17.5247 36.7276 17.3985 36.6015 17.3985V17.1461C36.6031 17.2773 36.7293 17.2773 36.6031 17.4035L36.6015 17.3985ZM36.8538 17.3985C36.8447 17.3016 36.7997 17.2116 36.7276 17.1461V17.02C36.7201 17.1594 36.7658 17.2964 36.8555 17.4035L36.8538 17.3985ZM41.6384 17.1461C41.5122 17.1461 41.5122 17.3985 41.6384 17.5247C41.6384 17.3985 41.6384 17.5247 41.7646 17.5247C41.7646 17.3985 41.8907 17.2723 41.6384 17.1461ZM36.4736 17.6508C36.4736 17.9032 36.5998 17.9032 36.5998 18.0293C36.5998 18.1555 36.726 18.1555 36.726 18.2817C36.8522 18.2817 36.8522 18.1555 36.8522 18.0293C36.726 18.0293 36.726 17.777 36.5998 17.777C36.5998 17.9032 36.726 18.0293 36.726 18.1555C36.5998 17.9032 36.4736 17.5263 36.3475 17.274V17.1478C36.3574 17.4035 36.3574 17.6558 36.477 17.6558L36.4736 17.6508ZM36.4736 17.6508C36.4823 17.5823 36.4754 17.5127 36.4536 17.4472C36.4317 17.3817 36.3955 17.3219 36.3475 17.2723C36.3574 17.4035 36.477 17.4035 36.477 17.6558L36.4736 17.6508ZM36.9717 17.2723C36.8555 17.2773 36.9816 17.4035 36.9816 17.2773L36.9717 17.2723ZM41.1271 17.3985C41.1271 17.5247 41.1271 17.6508 41.2532 17.6508C41.2532 17.5247 41.3794 17.5247 41.3794 17.3985L41.2532 17.2723C41.3877 17.4035 41.2632 17.4035 41.137 17.4035L41.1271 17.3985ZM36.7193 17.6508C36.7102 17.5539 36.6652 17.4639 36.5932 17.3985C36.6031 17.5296 36.6031 17.782 36.7293 17.6558L36.7193 17.6508ZM40.7568 17.6508C40.7568 17.777 40.7568 17.9032 40.883 17.9032C41.0092 17.9032 40.883 17.6508 41.0092 17.6508C41.0087 17.6675 41.0117 17.6841 41.0179 17.6996C41.024 17.7152 41.0333 17.7293 41.0451 17.7411C41.0569 17.7529 41.071 17.7622 41.0865 17.7683C41.1021 17.7745 41.1187 17.7775 41.1354 17.777C41.1354 17.6508 41.2615 17.6508 41.2615 17.5247C40.8847 17.5296 40.8847 17.6558 40.7585 17.6558L40.7568 17.6508ZM37.2307 18.28C37.2307 18.1539 37.1045 18.0277 37.1045 17.9015C37.0204 17.8174 36.9363 17.7333 36.8522 17.6492C37.1062 17.9082 37.1062 18.1588 37.2323 18.285L37.2307 18.28ZM36.8555 18.0327C36.7293 18.0327 36.7293 18.1588 36.8555 18.1588C36.8795 18.1276 36.8954 18.091 36.902 18.0521C36.9085 18.0133 36.9054 17.9734 36.893 17.9361C36.8805 17.8987 36.8591 17.865 36.8305 17.8378C36.802 17.8106 36.7672 17.7909 36.7293 17.7803C36.8555 17.782 36.8555 17.9082 36.8555 18.0327ZM46.6786 18.0327C46.6786 17.9065 46.8048 17.9065 46.8048 17.7803L46.6786 18.0327ZM37.234 18.0327C37.3602 18.1588 37.234 17.9065 37.234 17.7803C37.1062 17.9082 37.2323 17.9082 37.2323 18.0327H37.234ZM37.234 17.7803C37.2323 17.9082 37.3535 17.9082 37.2323 17.782L37.234 17.7803ZM40.7602 18.0327V17.7803C40.5078 17.7803 40.5078 18.0327 40.634 18.0327C40.634 17.9065 40.5078 17.9065 40.634 17.9065C40.6335 17.923 40.6364 17.9395 40.6425 17.9549C40.6486 17.9703 40.6577 17.9843 40.6694 17.9961C40.681 18.0079 40.6949 18.0172 40.7102 18.0235C40.7255 18.0298 40.7419 18.0329 40.7585 18.0327H40.7602ZM42.0186 18.0327C41.8924 18.0327 41.8924 18.1588 42.0186 18.0327V18.0327ZM37.3585 18.1588C37.3585 18.0327 37.3585 18.0327 37.2323 18.0327C37.2323 18.0327 37.4847 18.1588 37.3535 18.1588H37.3585ZM47.18 18.1588C47.3062 18.1588 47.3062 18.0327 47.18 18.0327V18.1588ZM40.1276 18.1588C40.2538 18.1588 40.38 18.285 40.38 18.1588H40.5078C40.5083 18.1421 40.5053 18.1255 40.4992 18.11C40.493 18.0945 40.4837 18.0804 40.4719 18.0686C40.4601 18.0568 40.446 18.0475 40.4305 18.0413C40.415 18.0352 40.3983 18.0322 40.3817 18.0327C40.2555 18.0327 40.2555 18.1588 40.1293 18.1588H40.1276ZM46.5491 18.285L46.6753 18.0327C46.5508 18.1588 46.4246 18.285 46.5508 18.285H46.5491ZM37.483 18.4112C37.5551 18.4766 37.6001 18.5666 37.6092 18.6635C37.6087 18.6802 37.6117 18.6968 37.6179 18.7123C37.624 18.7279 37.6333 18.742 37.6451 18.7538C37.6569 18.7656 37.671 18.7748 37.6865 18.781C37.7021 18.7872 37.7187 18.7902 37.7354 18.7897V18.9159L37.9877 19.1682C37.9834 19.1027 37.9555 19.041 37.909 18.9945C37.8626 18.9481 37.8009 18.9202 37.7354 18.9159L37.6092 18.7897V18.6635C37.5925 18.664 37.5759 18.661 37.5604 18.6549C37.5449 18.6487 37.5308 18.6394 37.519 18.6276C37.5071 18.6158 37.4979 18.6017 37.4917 18.5862C37.4855 18.5707 37.4826 18.554 37.483 18.5374C37.6092 18.5374 37.483 18.4112 37.483 18.4112C37.4698 18.3155 37.4255 18.2268 37.3568 18.1588C37.3705 18.2547 37.4154 18.3434 37.4847 18.4112H37.483ZM47.3062 18.285C47.3062 18.1588 47.18 18.1588 47.3062 18.285V18.285ZM39.877 18.5374C39.877 18.5374 40.1293 18.6635 40.1293 18.5374H40.0098C40.2621 18.5374 40.0098 18.4112 40.2621 18.5374C40.1359 18.4112 40.2621 18.5374 40.3883 18.4112C40.1293 18.285 39.877 18.4112 39.877 18.5374ZM41.5139 21.3082L41.2615 21.0558C41.1354 21.0558 41.1354 20.9296 41.0092 20.9296L40.883 20.8035C40.6307 20.5511 40.2538 20.425 40.0015 20.3054C39.7313 20.1691 39.4778 20.002 39.2461 19.8074L39.1199 19.6812C38.9938 19.555 38.8676 19.555 38.8676 19.4289C38.6152 19.3027 38.4891 19.0503 38.2384 18.9308L37.8599 18.5523C37.8432 18.5528 37.8266 18.5498 37.8111 18.5436C37.7955 18.5374 37.7814 18.5282 37.7696 18.5164C37.7578 18.5046 37.7486 18.4905 37.7424 18.4749C37.7362 18.4594 37.7332 18.4428 37.7337 18.4261C37.6651 18.3581 37.6207 18.2695 37.6075 18.1738C37.7072 18.2888 37.792 18.416 37.8599 18.5523V18.6785C37.8599 18.8046 37.986 18.8046 38.1122 18.9308L38.2384 19.057C38.3225 19.1411 38.4066 19.2252 38.4907 19.3093C38.7101 19.5552 38.9647 19.7672 39.2461 19.9385C39.7217 20.1636 40.184 20.4158 40.6307 20.6939C41.0974 20.9138 41.523 21.2119 41.8891 21.5754C41.7532 21.5025 41.6272 21.4127 41.5139 21.3082ZM47.1817 18.4112C47.0555 18.4112 47.1817 18.5374 47.1817 18.4112V18.4112ZM37.6108 18.7897C37.6108 18.6635 37.4847 18.5374 37.4847 18.6635C37.6108 18.6635 37.4847 18.7897 37.6108 18.7897ZM37.8632 19.1682C37.8799 19.1678 37.8965 19.1707 37.912 19.1769C37.9275 19.1831 37.9416 19.1923 37.9534 19.2041C37.9652 19.216 37.9745 19.2301 37.9807 19.2456C37.9869 19.2611 37.9898 19.2777 37.9894 19.2944C37.9889 19.3111 37.9919 19.3277 37.998 19.3432C38.0042 19.3587 38.0135 19.3728 38.0253 19.3846C38.0371 19.3964 38.0512 19.4057 38.0667 19.4119C38.0822 19.4181 38.0988 19.421 38.1155 19.4206C37.8632 19.2944 37.8632 19.042 37.6175 18.9225C37.6108 18.9142 37.8632 19.0404 37.8632 19.1666V19.1682ZM41.6417 21.8128C41.646 21.8784 41.674 21.9401 41.7204 21.9865C41.7668 22.0329 41.8285 22.0609 41.8941 22.0652C41.8941 21.939 41.8941 21.939 41.7679 21.939C41.7683 21.9223 41.7654 21.9057 41.7592 21.8902C41.753 21.8747 41.7438 21.8606 41.7319 21.8488C41.7201 21.837 41.706 21.8277 41.6905 21.8215C41.675 21.8153 41.6584 21.8124 41.6417 21.8128C41.5155 21.6867 41.3894 21.5605 41.3894 21.4343C41.6417 21.5605 41.7679 21.8128 41.8874 21.9324C41.8874 21.8062 41.7612 21.8062 41.6351 21.68C41.5089 21.5539 41.3827 21.5539 41.3827 21.4277C41.2566 21.4277 41.1304 21.3015 41.0042 21.1753C40.878 21.1753 40.878 21.0492 40.7519 21.0492C40.6562 21.036 40.5675 20.9916 40.4995 20.923C40.4828 20.9235 40.4662 20.9205 40.4507 20.9143C40.4352 20.9081 40.4211 20.8989 40.4093 20.8871C40.3975 20.8753 40.3882 20.8612 40.382 20.8456C40.3758 20.8301 40.3729 20.8135 40.3733 20.7968H40.2472C40.121 20.7968 40.121 20.6707 39.9948 20.6707C39.8687 20.6707 39.8687 20.5445 39.7425 20.5445C39.6163 20.4183 39.4901 20.4183 39.364 20.2921C39.2378 20.2921 39.2378 20.166 39.1116 20.166C39.0159 20.1528 38.9273 20.1084 38.8593 20.0398V19.9219H38.7331V19.7958H38.6069V19.6696C38.5903 19.67 38.5736 19.6671 38.5581 19.6609C38.5426 19.6547 38.5285 19.6455 38.5167 19.6336C38.5049 19.6218 38.4956 19.6077 38.4894 19.5922C38.4833 19.5767 38.4803 19.5601 38.4808 19.5434C38.3546 19.4172 38.2284 19.2911 38.1023 19.2911C38.0343 19.2224 37.9456 19.1781 37.8499 19.1649C37.8499 19.1649 37.7237 19.0387 37.7237 19.1649C37.9761 19.2911 38.1023 19.5434 38.2218 19.6629C38.3175 19.6762 38.4061 19.7205 38.4741 19.7891C38.5583 19.8732 38.6424 19.9573 38.7265 20.0415C38.7432 20.041 38.7598 20.0439 38.7753 20.0501C38.7908 20.0563 38.8049 20.0656 38.8167 20.0774C38.8285 20.0892 38.8378 20.1033 38.844 20.1188C38.8502 20.1343 38.8531 20.1509 38.8526 20.1676C38.9788 20.2938 38.9788 20.2938 39.105 20.2938C39.3307 20.3914 39.5423 20.5187 39.7342 20.6723C39.8604 20.7985 40.1127 20.7985 40.1127 20.9247H40.2389C40.365 20.9247 40.365 21.0508 40.4912 21.0508C40.6174 21.177 40.7436 21.177 40.8697 21.3032C40.8697 21.3032 41.1221 21.4293 40.9959 21.5555C40.6174 21.177 39.9882 20.9263 39.6113 20.674C39.4742 20.5421 39.3007 20.4542 39.1133 20.4216C38.9761 20.2898 38.8027 20.2019 38.6152 20.1693C38.6157 20.1526 38.6128 20.136 38.6066 20.1205C38.6004 20.105 38.5911 20.0909 38.5793 20.0791C38.5675 20.0672 38.5534 20.058 38.5379 20.0518C38.5224 20.0456 38.5058 20.0427 38.4891 20.0431C39.6246 20.6773 40.8847 21.0558 41.64 21.8112L41.6417 21.8128ZM38.6202 19.7974C38.3679 19.6712 38.3679 19.5451 38.2417 19.4189C38.246 19.4844 38.274 19.5461 38.3204 19.5926C38.3668 19.639 38.4285 19.6669 38.4941 19.6712C38.6202 19.7974 38.7464 19.7974 38.7464 19.9236C38.7471 19.9066 38.7443 19.8897 38.7381 19.8738C38.7319 19.858 38.7225 19.8436 38.7105 19.8316C38.6985 19.8196 38.6841 19.8102 38.6683 19.8041C38.6525 19.7979 38.6355 19.795 38.6186 19.7958L38.6202 19.7974ZM38.8726 20.2955C38.9987 20.2955 38.9987 20.1693 38.8726 20.2955V20.2955ZM38.7464 20.7935L38.8726 20.6673H38.9987C38.7464 20.6673 38.9987 20.5412 38.9987 20.5412C38.9313 20.5453 38.8678 20.5745 38.8208 20.623C38.7738 20.6716 38.7467 20.7359 38.7447 20.8035L38.7464 20.7935ZM38.7464 20.9197C38.8726 21.0458 38.6202 21.172 38.7464 21.4177C38.7464 21.5439 38.7464 21.5439 38.8726 21.5439C38.7464 21.4177 38.8726 21.4177 38.8726 21.2916C38.8726 21.0392 38.8726 21.0392 38.7464 20.913C38.8726 20.913 38.9987 20.913 38.9987 20.7869C38.8692 20.6773 38.8692 20.9296 38.7447 20.9296L38.7464 20.9197ZM38.9921 21.0508C38.8692 20.9296 38.8692 21.0558 38.9954 21.0558L38.9921 21.0508ZM42.3921 21.4293L42.5183 21.3032C42.5192 21.3199 42.5167 21.3365 42.5109 21.3522C42.5051 21.3679 42.4962 21.3822 42.4847 21.3944C42.4732 21.4065 42.4594 21.4161 42.444 21.4227C42.4287 21.4293 42.4121 21.4327 42.3954 21.4327L42.3921 21.4293ZM42.2659 21.6817C42.2655 21.665 42.2684 21.6484 42.2746 21.6329C42.2808 21.6174 42.2901 21.6033 42.3019 21.5915C42.3137 21.5796 42.3278 21.5704 42.3433 21.5642C42.3588 21.558 42.3754 21.5551 42.3921 21.5555C42.2692 21.5588 42.1447 21.685 42.2692 21.685L42.2659 21.6817ZM42.1398 21.8079C42.1398 21.6817 42.0136 21.8079 42.1398 21.8079V21.8079ZM42.6478 8.46685C42.7739 8.46685 42.9001 8.34067 42.7739 8.34067C42.6478 8.34067 42.7739 8.46685 42.6478 8.46685ZM43.4031 7.20845V6.95112C43.3207 6.84221 43.2764 6.7092 43.277 6.57261C43.277 6.44644 43.1508 6.32026 43.1508 6.19409C42.8984 6.06792 42.7723 5.81558 42.5216 5.69605H42.3954C42.4121 5.69559 42.4287 5.69854 42.4442 5.70472C42.4598 5.7109 42.4738 5.72017 42.4857 5.73198C42.4975 5.74379 42.5067 5.75788 42.5129 5.7734C42.5191 5.78891 42.522 5.80552 42.5216 5.82222C42.5211 5.83891 42.5241 5.85552 42.5303 5.87104C42.5364 5.88655 42.5457 5.90064 42.5575 5.91245C42.5693 5.92426 42.5834 5.93354 42.5989 5.93972C42.6145 5.9459 42.6311 5.94885 42.6478 5.94839C42.6478 5.82222 42.7739 6.07456 42.7739 6.07456C42.6478 6.07456 42.9001 6.20073 42.9001 6.20073C43.0263 6.20073 43.0263 6.20073 43.1524 6.3269C43.3102 6.49903 43.3999 6.72269 43.4048 6.9561V7.08228C43.2786 7.08228 43.4048 6.9561 43.4048 6.9561L43.2786 6.82993V6.70376C43.2918 6.79945 43.3362 6.88812 43.4048 6.9561C43.4043 6.9728 43.4073 6.98941 43.4135 7.00492C43.4196 7.02044 43.4289 7.03453 43.4407 7.04634C43.4525 7.05815 43.4666 7.06743 43.4821 7.0736C43.4977 7.07978 43.5143 7.08273 43.531 7.08228C43.4031 6.95112 43.4031 7.0773 43.4031 7.20347V7.20845ZM42.6478 5.8106L42.5216 5.68442C42.5383 5.68397 42.5549 5.68692 42.5704 5.6931C42.5859 5.69927 42.6 5.70855 42.6118 5.72036C42.6236 5.73217 42.6329 5.74626 42.6391 5.76178C42.6453 5.77729 42.6482 5.7939 42.6478 5.8106ZM43.1458 6.69214C43.1458 6.56597 43.1458 6.56597 43.0196 6.4398C43.1508 6.57427 43.1508 6.57427 43.1508 6.70044L43.1458 6.69214ZM43.1458 6.81831C43.272 6.69214 43.1458 6.69214 43.1458 6.81831V6.81831ZM43.272 7.07065V7.19683V7.69487C43.1508 7.45581 43.277 7.20347 43.277 7.0773L43.272 7.07065ZM43.3982 7.57534C43.3982 7.44917 43.5243 7.323 43.3982 7.323C43.3803 7.33969 43.3662 7.35994 43.3567 7.38244C43.3472 7.40494 43.3425 7.42918 43.343 7.4536C43.3435 7.47802 43.3491 7.50206 43.3594 7.52418C43.3698 7.5463 43.3847 7.56599 43.4031 7.58198L43.3982 7.57534ZM42.2643 7.82769V8.08501C42.3904 8.21118 42.3904 7.95884 42.2643 7.83267L42.3904 7.70649V7.58032C42.3954 7.70815 42.3954 7.83267 42.2692 7.83267L42.2643 7.82769ZM43.1458 7.82769C43.272 7.82769 43.3982 7.44917 43.272 7.57534C43.277 7.70815 43.277 7.70815 43.1508 7.83267L43.1458 7.82769ZM43.0196 8.08003C43.1458 8.08003 43.1458 7.95386 43.0196 8.08003V8.08003ZM42.515 6.57759C42.6411 6.70376 42.6411 6.45142 42.515 6.57759V6.57759ZM42.6411 6.57759C42.7739 6.95112 42.7739 6.70044 42.6478 6.57427L42.6411 6.57759Z" fill="#34D399"/>
<path d="M45.6693 18.9143L45.2908 19.2928L45.4169 19.1666C45.4186 19.0405 45.4186 18.9143 45.6693 18.9143Z" fill="#34D399"/>
<path d="M42.6477 6.19585C42.7739 6.06967 42.7739 6.32202 42.6477 6.19585C42.7739 6.32202 42.7739 6.19585 42.6477 6.19585Z" fill="#34D399"/>
<path d="M42.6477 6.32178C42.7739 6.44795 42.6477 6.44795 42.6477 6.32178V6.32178Z" fill="#34D399"/>
<path d="M43.0247 7.32983C43.1509 7.32983 43.0247 7.45601 43.0247 7.45601C43.0247 7.58218 42.8986 7.70835 42.7724 7.83452C42.6462 7.83452 42.8986 7.70835 42.8986 7.70835C42.8901 7.63984 42.897 7.5703 42.9188 7.50481C42.9406 7.43932 42.9768 7.37954 43.0247 7.32983Z" fill="#34D399"/>
<path d="M40.5079 7.70825L40.634 7.83442C40.6173 7.83488 40.6007 7.83193 40.5852 7.82575C40.5697 7.81957 40.5556 7.8103 40.5438 7.79849C40.532 7.78668 40.5227 7.77259 40.5165 7.75707C40.5104 7.74156 40.5074 7.72495 40.5079 7.70825Z" fill="#34D399"/>
<path d="M39.1216 9.09272C39.2173 9.07951 39.3059 9.03517 39.3739 8.96655H39.5001C39.4504 9.01446 39.3906 9.05065 39.3251 9.07248C39.2596 9.09431 39.1901 9.10123 39.1216 9.09272Z" fill="#34D399"/>
<path d="M39.877 19.1664C40.1293 19.0402 40.375 19.1664 40.5062 18.914C40.6293 18.8032 40.7269 18.667 40.7923 18.5148C40.8576 18.3626 40.8892 18.1981 40.8847 18.0325V18.411C40.8851 18.4277 40.8822 18.4443 40.876 18.4598C40.8698 18.4753 40.8605 18.4894 40.8487 18.5012C40.8369 18.513 40.8228 18.5223 40.8073 18.5285C40.7918 18.5347 40.7752 18.5376 40.7585 18.5372V18.6633L40.5078 18.914L40.3816 19.0402H40.2555C40.1875 19.1088 40.0988 19.1531 40.0031 19.1664C40.1293 19.1664 40.0098 19.0402 39.877 19.1664Z" fill="#34D399"/>
<path d="M41.0059 18.5373C41.0059 18.4111 41.0059 18.1588 41.2582 18.1588V18.285C41.2582 18.285 41.2582 18.0326 41.3844 18.0326V18.1588C41.5105 18.1588 41.3844 18.0326 41.3844 17.9064C41.3839 17.8898 41.3869 17.8731 41.393 17.8576C41.3992 17.8421 41.4085 17.828 41.4203 17.8162C41.4321 17.8044 41.4462 17.7951 41.4617 17.7889C41.4772 17.7828 41.4939 17.7798 41.5105 17.7803H41.6367C41.6363 17.7636 41.6392 17.747 41.6454 17.7315C41.6516 17.7159 41.6608 17.7018 41.6727 17.69C41.6845 17.6782 41.6986 17.669 41.7141 17.6628C41.7296 17.6566 41.7462 17.6536 41.7629 17.6541V17.9064C41.7629 17.9064 41.6367 18.0326 41.6367 17.9064V18.0326C41.5105 18.0326 41.5105 18.1588 41.3844 18.1588C41.3844 18.285 41.3844 18.285 41.5105 18.285L41.3844 18.4111C41.3753 18.508 41.3303 18.598 41.2582 18.6635C41.132 18.7896 41.0059 18.9158 40.8797 18.9158C40.7535 19.042 40.5012 19.042 40.2505 19.042H40.3767C40.6101 19.0371 40.8337 18.9474 41.0059 18.7896C41.132 18.6635 41.2582 18.5373 41.2582 18.4111C41.0059 18.6635 41.0059 18.5373 41.0059 18.5373Z" fill="#34D399"/>
<path d="M41.0058 18.6636C41.0015 18.7291 40.9735 18.7908 40.9271 18.8373C40.8807 18.8837 40.8189 18.9116 40.7534 18.9159C40.6273 18.9159 40.7534 18.7898 40.8796 18.7898C40.8846 18.6636 40.8846 18.5374 41.0058 18.6636Z" fill="#34D399"/>
<path d="M45.7955 18.6636C45.7269 18.7316 45.6826 18.8202 45.6694 18.9159C45.5432 18.7897 45.7955 18.7897 45.7955 18.6636Z" fill="#34D399"/>
<path d="M41.2634 18.6636C41.2634 18.7897 41.1372 18.9159 41.1372 19.0421C41.0111 19.0421 41.1372 18.9159 41.2634 18.7897V18.6636Z" fill="#34D399"/>
<path d="M37.9878 18.7898C38.3663 19.0421 38.617 19.419 38.9955 19.5452C38.8693 19.5452 38.8693 19.419 38.7432 19.419L38.4908 19.1667C38.4741 19.1671 38.4575 19.1642 38.442 19.158C38.4265 19.1518 38.4124 19.1425 38.4006 19.1307C38.3888 19.1189 38.3795 19.1048 38.3733 19.0893C38.3671 19.0738 38.3642 19.0572 38.3646 19.0405C38.2401 19.0405 38.114 18.7898 37.9878 18.7898Z" fill="#34D399"/>
<path d="M41.3876 18.7898C41.5138 18.916 41.2615 19.0421 41.1353 19.1683C41.1348 19.1516 41.1378 19.135 41.144 19.1195C41.1501 19.104 41.1594 19.0899 41.1712 19.0781C41.183 19.0663 41.1971 19.057 41.2127 19.0508C41.2282 19.0446 41.2448 19.0417 41.2615 19.0421C41.2631 18.9143 41.3876 18.9143 41.3876 18.7898Z" fill="#34D399"/>
<path d="M40.6324 18.9143C40.5961 18.9852 40.5423 19.0456 40.476 19.0897C40.4098 19.1339 40.3333 19.1604 40.2539 19.1667C40.3817 19.0405 40.6324 19.0405 40.6324 18.9143Z" fill="#34D399"/>
<path d="M41.3876 19.1665C41.319 19.2345 41.2747 19.3232 41.2614 19.4188C41.1369 19.2927 41.2631 19.2927 41.3876 19.1665Z" fill="#34D399"/>
<path d="M38.7447 19.2927C38.6185 19.1665 38.8709 19.2927 38.7447 19.2927V19.2927Z" fill="#34D399"/>
<path d="M45.1662 19.2927C45.1667 19.3094 45.1637 19.326 45.1575 19.3415C45.1514 19.3571 45.1421 19.3712 45.1303 19.383C45.1185 19.3948 45.1044 19.404 45.0889 19.4102C45.0733 19.4164 45.0567 19.4194 45.04 19.4189C45.04 19.2927 45.1662 19.4239 45.1662 19.2927Z" fill="#34D399"/>
<path d="M38.9954 19.4238C39.1215 19.545 38.9954 19.545 38.9954 19.4238V19.4238Z" fill="#34D399"/>
<path d="M41.3876 19.4238C41.2631 19.545 41.2631 19.4238 41.3876 19.4238V19.4238Z" fill="#34D399"/>
<path d="M44.914 19.4238C44.846 19.4924 44.7573 19.5368 44.6616 19.55C44.7585 19.5409 44.8485 19.4959 44.914 19.4238Z" fill="#34D399"/>
<path d="M44.537 19.6711C44.4108 19.6711 44.4108 19.7973 44.2847 19.7973C44.4108 19.6711 44.4108 19.6711 44.537 19.6711Z" fill="#34D399"/>
<path d="M44.537 19.6711C44.6632 19.6711 44.4108 19.7973 44.4108 19.7973C44.3431 19.865 44.255 19.9087 44.1602 19.9218C44.2847 19.7957 44.537 19.7957 44.537 19.6711Z" fill="#34D399"/>
<path d="M42.3953 19.7957C42.3953 19.6695 42.5214 19.7957 42.6476 19.9218C42.7738 19.9218 42.7738 20.048 42.9 20.048C43.0261 20.048 43.1523 20.1742 43.2785 20.1742H43.1523C43.1523 20.048 43.0261 20.1742 43.0261 20.1742C42.7738 19.9218 42.6476 19.7957 42.3953 19.7957Z" fill="#34D399"/>
<path d="M39.2476 19.7957C39.7456 20.048 40.1291 20.2937 40.6321 20.551C40.7583 20.551 40.7583 20.6772 40.8845 20.6772C40.9525 20.7458 41.0411 20.7902 41.1368 20.8034H41.263V20.9295H41.3892L41.5153 21.0557H41.6415V21.1819H41.7677L41.8939 21.3081C41.9105 21.3076 41.9272 21.3106 41.9427 21.3167C41.9582 21.3229 41.9723 21.3322 41.9841 21.344C41.9959 21.3558 42.0052 21.3699 42.0114 21.3854C42.0175 21.4009 42.0205 21.4175 42.02 21.4342C41.8939 21.4342 41.8939 21.4342 41.8939 21.3081C41.8772 21.3085 41.8605 21.3056 41.845 21.2994C41.8295 21.2932 41.8154 21.2839 41.8036 21.2721C41.7918 21.2603 41.7825 21.2462 41.7764 21.2307C41.7702 21.2152 41.7672 21.1986 41.7677 21.1819L41.6415 21.0557C41.6248 21.0562 41.6082 21.0532 41.5927 21.047C41.5772 21.0409 41.5631 21.0316 41.5513 21.0198C41.5395 21.008 41.5302 20.9939 41.524 20.9784C41.5178 20.9629 41.5149 20.9462 41.5153 20.9295C41.3892 20.8034 41.263 20.8034 41.263 20.6772C40.3814 20.4199 39.7506 20.1742 39.2476 19.7957Z" fill="#34D399"/>
<path d="M39.5002 19.7956C39.5002 19.6694 39.6264 19.7956 39.6264 19.7956C39.6248 19.9218 39.5002 19.7956 39.5002 19.7956Z" fill="#34D399"/>
<path d="M41.3876 19.7957C41.5138 19.7957 41.2615 19.9218 41.2615 19.9218C41.2782 19.9223 41.2948 19.9193 41.3103 19.9132C41.3258 19.907 41.3399 19.8977 41.3517 19.8859C41.3635 19.8741 41.3728 19.86 41.379 19.8445C41.3852 19.829 41.3881 19.8123 41.3876 19.7957Z" fill="#34D399"/>
<path d="M39.7507 19.9219C39.6245 19.7957 39.8769 19.9219 40.003 20.0481C39.9074 20.0348 39.8187 19.9905 39.7507 19.9219Z" fill="#34D399"/>
<path d="M40.0098 20.048C40.0098 19.9218 40.1359 20.048 40.1359 20.048C40.1293 20.1742 40.0098 20.1742 40.0098 20.048Z" fill="#34D399"/>
<path d="M41.5139 20.0481C41.5143 20.0648 41.5114 20.0814 41.5052 20.0969C41.499 20.1124 41.4897 20.1265 41.4779 20.1383C41.4661 20.1501 41.452 20.1594 41.4365 20.1656C41.421 20.1718 41.4044 20.1747 41.3877 20.1743C41.5139 20.1743 41.5139 20.1743 41.5139 20.0481Z" fill="#34D399"/>
<path d="M40.2554 20.1743C40.3816 20.3005 40.6339 20.3005 40.3816 20.3005C40.3649 20.301 40.3483 20.298 40.3328 20.2918C40.3173 20.2856 40.3032 20.2764 40.2914 20.2646C40.2795 20.2527 40.2703 20.2387 40.2641 20.2231C40.2579 20.2076 40.255 20.191 40.2554 20.1743Z" fill="#34D399"/>
<path d="M40.8848 20.5513C40.8848 20.4251 41.0109 20.5513 41.0109 20.6775L40.8848 20.5513Z" fill="#34D399"/>
<path d="M41.8923 10.4773C42.0185 10.4773 42.0185 10.7296 42.0185 10.7296V11.6112C42.0351 11.6107 42.0518 11.6137 42.0673 11.6199C42.0828 11.626 42.0969 11.6353 42.1087 11.6471C42.1205 11.6589 42.1298 11.673 42.136 11.6885C42.1421 11.704 42.1451 11.7207 42.1446 11.7374C42.1446 11.8635 41.8923 11.7374 41.8923 11.8635C41.8923 11.9897 41.7661 11.8635 41.7661 11.9897V12.1192C41.7661 12.2454 41.8923 12.1192 41.8923 12.1192C41.8923 12.2454 41.8923 12.3715 42.0185 12.3715V12.75H41.8923C42.0185 12.75 41.7661 12.8762 41.7661 13.0024V13.2481V12.8712C41.8347 12.9392 41.8791 13.0279 41.8923 13.1236C41.8923 13.2498 42.0185 13.3759 42.0185 13.6216L42.1446 13.4955C42.2708 13.6216 42.1446 13.874 42.1446 13.9935C42.0185 13.9935 42.1446 13.8673 42.1446 13.8673V13.9935C42.0185 13.9935 42.1446 13.8673 42.0185 13.8673V13.2481C42.0367 13.2325 42.0513 13.2132 42.0613 13.1914C42.0714 13.1696 42.0766 13.1459 42.0766 13.1219C42.0766 13.0979 42.0714 13.0742 42.0613 13.0525C42.0513 13.0307 42.0367 13.0113 42.0185 12.9958V12.7451V12.6172V12.3666V12.2404C41.8923 11.7374 41.8923 11.1082 41.8923 10.4773Z" fill="#34D399"/>
<path d="M15.4394 41.0772H10.0322L7.89229 46.9957H7.01074L12.803 31.0034L18.5937 46.9957H17.7138L15.4394 41.0772ZM15.0608 40.1957L12.6769 33.648L10.2929 40.1957H15.0608Z" fill="#34D399"/>
<path d="M72.9953 38.4327C71.8619 38.0553 70.9804 37.5517 70.3506 36.9219C70.0266 36.6148 69.7698 36.2438 69.5966 35.8322C69.4234 35.4207 69.3376 34.9777 69.3446 34.5313C69.3446 33.6498 69.7231 32.8944 70.3523 32.2652C70.6594 31.9406 71.0307 31.6834 71.4425 31.5099C71.8544 31.3364 72.2978 31.2505 72.7446 31.2575C73.6261 31.2575 74.3815 31.636 75.1369 32.2652C75.473 32.5796 75.7316 32.9677 75.8922 33.3991L75.1369 33.6514C75.0481 33.2877 74.8228 32.972 74.5077 32.7699C74.286 32.5238 74.0136 32.3288 73.7092 32.1983C73.4048 32.0679 73.0756 32.0052 72.7446 32.0145C72.4154 32.0176 72.09 32.086 71.7874 32.2156C71.4848 32.3453 71.2108 32.5337 70.9815 32.7699C70.7353 32.9912 70.5401 33.2633 70.4094 33.5674C70.2787 33.8715 70.2156 34.2004 70.2245 34.5313C70.2276 34.8605 70.2959 35.1859 70.4256 35.4885C70.5552 35.7911 70.7436 36.065 70.9798 36.2944C71.4779 36.6729 71.9876 37.1759 72.8691 37.5528C74.0647 37.9027 75.1507 38.5531 76.0234 39.4421C76.4531 39.8724 76.7938 40.3832 77.0261 40.9452C77.2584 41.5073 77.3778 42.1096 77.3773 42.7177C77.3768 43.3259 77.2566 43.928 77.0234 44.4897C76.7903 45.0514 76.4488 45.5617 76.0184 45.9914C75.588 46.4211 75.0773 46.7618 74.5152 46.9941C73.9532 47.2264 73.3509 47.3458 72.7427 47.3453C72.1346 47.3448 71.5324 47.2246 70.9708 46.9914C70.4091 46.7583 69.8988 46.4168 69.4691 45.9864C68.761 45.3251 68.3144 44.4312 68.2107 43.4679L69.0922 43.2156C69.2061 44.0781 69.6046 44.8779 70.2245 45.4883C70.5703 45.8424 70.9829 46.1243 71.4384 46.3178C71.894 46.5112 72.3834 46.6124 72.8783 46.6153C73.3732 46.6182 73.8637 46.5229 74.3215 46.3349C74.7793 46.1468 75.1953 45.8698 75.5452 45.5198C75.8952 45.1699 76.1722 44.7539 76.3602 44.2961C76.5483 43.8384 76.6436 43.3478 76.6407 42.8529C76.6377 42.358 76.5366 41.8686 76.3432 41.413C76.1497 40.9575 75.8678 40.5449 75.5137 40.1991C74.8499 39.3928 73.9794 38.7822 72.9953 38.4327Z" fill="#34D399"/>
<path d="M41.5139 72.9373H41.0159C41.2973 73.1085 41.5519 73.3206 41.7712 73.5665H42.5266C42.147 73.4335 41.8013 73.2187 41.5139 72.9373Z" fill="#34D399"/>
<path d="M41.137 72.6848H40.6389C40.9204 72.8561 41.175 73.0681 41.3943 73.314H42.1497C41.77 73.1811 41.4243 72.9663 41.137 72.6848ZM42.6477 73.314H42.1497C42.4726 73.4724 42.81 73.5992 43.1574 73.6925C42.9699 73.5919 42.7982 73.4644 42.6477 73.314Z" fill="#34D399"/>
<path d="M52.7216 72.8112C49.0693 72.685 48.0632 72.5589 48.0632 72.5589C48.0632 72.5589 46.8031 69.5374 44.6632 68.9065C42.5233 68.2757 42.9001 67.3958 42.9001 67.3958C42.9001 67.3958 43.5293 66.5142 44.7894 67.2696C46.0494 68.025 46.5508 68.3985 47.0555 68.3985C47.5535 68.2724 47.434 67.6432 46.8031 67.2646C46.1723 66.8861 44.537 66.0062 42.9001 66.0062C41.2632 66.0062 39.2478 64.7462 39.2478 64.7462C38.7974 64.3433 38.2151 64.1195 37.6109 64.117C36.7931 64.1135 35.9968 64.3789 35.3447 64.8724C34.8467 65.2509 33.9602 65.7539 33.9602 65.7539L33.7012 66.1374C33.7012 66.1374 35.0858 65.7589 35.7166 65.885C36.3475 66.0112 37.6059 66.7666 37.6059 67.0189C37.6059 67.2713 37.4797 68.0266 37.2274 68.2773C36.975 68.528 36.3458 69.7881 36.3458 70.2928C36.3458 70.7975 36.3458 72.0559 36.7243 72.182C37.1028 72.3082 37.8582 72.182 37.8582 71.3005C37.8582 70.2928 37.4797 69.7897 38.1106 69.285C38.6086 68.787 39.4951 70.7958 39.4951 70.7958C39.4951 70.7958 39.369 72.1804 39.6213 72.9357L37.8582 73.0619C37.8582 73.0619 33.0736 73.0619 31.9398 73.1881C30.8059 73.3142 26.7767 74.5726 32.3183 75.2035C37.8599 75.8344 44.9106 75.582 48.4367 75.2035C51.9629 74.825 52.8445 74.825 54.1029 74.322C55.3613 73.8189 56.374 72.9374 52.7216 72.8112ZM36.7293 65.2558C36.6031 65.2558 36.477 65.1297 36.477 64.8773C36.477 64.7512 36.6031 64.4988 36.7293 64.4988C36.8555 64.4988 36.9817 64.625 36.9817 64.8773C36.9817 65.1297 36.8555 65.2558 36.7293 65.2558ZM38.3662 69.1589C37.9877 68.9065 37.9877 69.4112 37.737 69.6569C37.4847 70.0354 37.737 70.9153 37.737 70.9153C37.737 70.9153 37.6109 72.0509 37.3535 72.0509C37.1012 72.177 37.1012 71.2955 37.1012 70.7925C37.1012 70.2894 37.4797 69.5341 37.7304 68.9032C37.9289 68.454 38.1826 68.0312 38.4858 67.6448L40.2488 69.5341C39.6146 69.4455 38.986 69.3203 38.3662 69.1589ZM39.1216 71.8035V71.5528C39.1216 71.5528 39.877 72.0509 40.0031 72.3082C40.1293 72.5655 40.3817 72.5605 40.7585 72.8062H41.2566C41.1304 72.6801 41.0042 72.5539 41.0042 72.4277C40.894 72.2393 40.8257 72.0294 40.8039 71.8123C40.7822 71.5951 40.8074 71.3758 40.878 71.1693C41.0042 71.7985 41.5072 72.4277 41.8858 72.8062L42.2643 73.1848L42.5166 73.4371C42.2879 73.4115 42.0705 73.3243 41.8874 73.1848H41.5089C41.6641 73.3265 41.7924 73.4953 41.8874 73.6828C42.1398 74.0613 41.8874 73.9351 41.6351 73.9351C41.5089 74.0613 41.2566 73.809 40.6274 73.1798C40.5012 73.0536 39.9982 72.9274 39.872 72.8013C39.5896 72.4942 39.3382 72.16 39.1216 71.8035ZM46.1739 74.825C44.7894 75.0773 43.5293 75.2035 41.3894 75.2035C39.2494 75.2035 34.8417 74.9512 32.7001 74.825C30.5585 74.6988 30.8109 74.0696 31.9447 73.8173C33.0786 73.5649 36.3574 73.5666 36.3574 73.5666L39.8836 73.4404C40.2621 74.0696 41.0175 74.7005 41.5205 74.7005C42.0236 74.7005 43.0313 73.9451 43.0313 73.8189C43.1574 73.6928 43.4098 73.3209 44.4158 73.5666C45.4219 73.8123 46.0528 74.4481 46.8081 74.7005C46.5897 74.6914 46.3723 74.7346 46.1739 74.8266V74.825ZM46.5525 73.6911C45.7971 73.5649 45.6709 73.3126 45.2941 73.0619C45.2444 73.014 45.1846 72.9778 45.1191 72.956C45.0536 72.9341 44.9841 72.9272 44.9155 72.9357C44.4175 72.6834 44.034 73.0619 43.1525 73.1881C42.9869 73.1926 42.8223 73.1611 42.6701 73.0957C42.5179 73.0304 42.3817 72.9327 42.2709 72.8096C41.8924 72.5572 41.6417 72.0542 41.3894 71.8018C41.0109 71.4233 41.137 70.4173 40.3817 69.2834C39.7525 68.1495 37.8632 66.0096 37.8632 66.0096C37.8625 65.9762 37.8686 65.9431 37.881 65.9122C37.8935 65.8813 37.912 65.8532 37.9356 65.8296C37.9592 65.806 37.9873 65.7875 38.0182 65.775C38.0491 65.7626 38.0822 65.7565 38.1155 65.7572C38.3679 65.7572 38.4941 65.7572 38.6136 65.3787C38.7331 65.0002 38.9921 65.0002 39.369 65.1264C39.8929 65.3082 40.3671 65.6101 40.7535 66.0079C41.2516 66.5059 41.6351 66.3864 41.6351 66.3864C41.6351 66.3864 42.0136 66.2602 43.6505 66.3864C44.7713 66.4445 45.8579 66.7917 46.8048 67.3941C47.434 67.7726 46.5525 67.8922 46.1756 67.5203C45.7988 67.1484 44.2864 66.8911 43.7833 66.7649C43.5198 66.6997 43.2442 66.7 42.9808 66.766C42.7174 66.832 42.4742 66.9616 42.2726 67.1434C41.7745 67.522 42.7706 68.1512 43.6571 68.528C44.6494 69.1477 45.5776 69.8646 46.428 70.668C46.8065 70.9203 47.1833 71.8018 47.4357 72.431C47.5618 72.5572 47.5618 72.8096 47.688 72.9291C47.7705 73.038 47.8148 73.171 47.8142 73.3076C48.0632 73.6928 47.4323 73.8189 46.5508 73.6928L46.5525 73.6911ZM53.6048 74.3203H50.2031L48.9431 73.6911C48.8219 73.4125 48.6534 73.1569 48.445 72.9357C48.445 72.9357 51.7189 72.8096 53.985 72.9357C56.374 73.1897 54.3585 74.322 53.6031 74.322L53.6048 74.3203Z" fill="#34D399"/>
<path d="M42.3953 73.4403C42.1666 73.4147 41.9492 73.3275 41.7661 73.188H42.1446C42.2691 73.4403 42.3953 73.4403 42.3953 73.4403Z" fill="#34D399"/>
<path d="M2.39701 0.854946L1.41797 1.83398L81.4667 81.8828L82.4458 80.9037L2.39701 0.854946Z" fill="#34D399"/>
<path d="M82.6027 0.837957L2.55396 80.8867L3.53299 81.8658L83.5818 1.817L82.6027 0.837957Z" fill="#34D399"/>
</svg>
