<svg width="36" height="42" viewBox="0 0 36 42" fill="none" xmlns="http://www.w3.org/2000/svg">
<g clip-path="url(#clip0_1446_8658)">
<path d="M4.69568 4.69565H30.5218V30.5217H4.69568V4.69565Z" fill="white"/>
<path fill-rule="evenodd" clip-rule="evenodd" d="M20.4582 19.1215H12.3323V22.9453H20.2633C20.7321 22.9453 21.1617 22.7543 21.5131 22.4483C21.8262 22.1423 22.0218 21.6837 22.0218 21.1101C22.0326 20.6163 21.8815 20.1325 21.5914 19.7327C21.2783 19.3508 20.9269 19.1215 20.4582 19.1215ZM20.7321 14.4939C21.0842 14.2646 21.24 13.7669 21.24 13.1165C21.24 12.5436 21.0835 12.1226 20.8096 11.855C20.5268 11.6119 20.1673 11.4767 19.7945 11.473H12.3323V14.9142H19.638C20.0293 14.9142 20.419 14.7232 20.7321 14.4939Z" fill="#00B3B0"/>
<path fill-rule="evenodd" clip-rule="evenodd" d="M33.6537 0H1.82504C0.81 0 0 0.808435 0 1.77887V33.5543C0 34.5248 0.810783 35.1313 1.78435 35.1313H6.48783V41.4783L12.3261 35.172H33.6537C34.6265 35.172 35.2346 34.5655 35.2346 33.5543V1.81957C35.2346 0.84913 34.6265 0.0406957 33.613 0.0406957L33.6537 0ZM28.3015 25.7517C27.8961 26.4796 27.288 27.0861 26.5578 27.5306C25.7877 28.0158 24.9363 28.4603 23.9627 28.663C22.9899 28.9057 21.9357 29.1076 20.8409 29.1076H6.48783V6.46826H22.7872C23.598 6.46826 24.2875 6.63026 24.9363 6.99417C25.5528 7.32034 26.1028 7.75913 26.5578 8.28783C27.4659 9.39105 27.9543 10.7799 27.9368 12.2087C27.9368 13.2597 27.6527 14.2709 27.126 15.2413C26.5787 16.2181 25.723 16.986 24.6929 17.4248C25.9904 17.7879 27.0039 18.4343 27.774 19.3649C28.5042 20.3353 28.8697 21.5875 28.8697 23.1644C28.8697 24.1756 28.6662 25.0247 28.2608 25.7517H28.3015Z" fill="#00B3B0"/>
</g>
<defs>
<clipPath id="clip0_1446_8658">
<rect width="36" height="41.4783" fill="white"/>
</clipPath>
</defs>
</svg>
