<svg width="568" height="819" viewBox="0 0 568 819" fill="none" xmlns="http://www.w3.org/2000/svg">
<path d="M419.963 565.62C376.032 585.196 302.025 567.711 250.66 587.682C199.685 607.674 170.962 665.103 129.554 688.711C87.7558 712.299 32.8629 702.435 -15.7568 676.9C-64.0075 651.773 -106.394 611.344 -108.198 563.26C-110.391 515.157 -72.7786 459.359 -71.7039 400.89C-70.6291 342.421 -106.44 280.482 -92.9344 245.676C-79.4284 210.87 -16.5647 202.418 36.5578 178.636C89.6602 155.242 133.062 115.741 175.617 115.212C218.561 114.703 260.66 153.167 290.615 192.563C320.18 231.938 337.562 273.025 369.443 312.911C401.323 352.796 447.661 392.26 463.125 440.27C478.977 488.3 464.303 545.675 419.963 565.62Z" fill="url(#paint0_radial_812_11267)" fill-opacity="0.08"/>
<defs>
<radialGradient id="paint0_radial_812_11267" cx="0" cy="0" r="1" gradientUnits="userSpaceOnUse" gradientTransform="translate(184.619 411.739) rotate(-177.038) scale(287.948 295.811)">
<stop stop-color="#0ED7B5"/>
<stop offset="0.9998" stop-color="#0E7490"/>
<stop offset="0.9999" stop-color="#34D399" stop-opacity="0.015625"/>
<stop offset="1" stop-color="#34D399"/>
</radialGradient>
</defs>
</svg>
