<svg width="480" height="432" viewBox="0 0 480 432" fill="none" xmlns="http://www.w3.org/2000/svg">
<circle cx="2.5" cy="253.5" r="2.5" fill="currentColor" fill-opacity="0.42"/>
<circle cx="27.5" cy="253.5" r="2.5" fill="currentColor" fill-opacity="0.42"/>
<circle cx="52.5" cy="253.5" r="2.5" fill="currentColor" fill-opacity="0.42"/>
<circle cx="77.5" cy="253.5" r="2.5" fill="currentColor" fill-opacity="0.42"/>
<circle cx="102.5" cy="253.5" r="2.5" fill="currentColor" fill-opacity="0.42"/>
<circle cx="127.5" cy="253.5" r="2.5" fill="currentColor" fill-opacity="0.42"/>
<circle cx="152.5" cy="253.5" r="2.5" fill="currentColor" fill-opacity="0.42"/>
<circle cx="177.5" cy="253.5" r="2.5" fill="currentColor" fill-opacity="0.42"/>
<circle cx="202.5" cy="253.5" r="2.5" fill="currentColor" fill-opacity="0.42"/>
<circle cx="227.5" cy="253.5" r="2.5" fill="currentColor" fill-opacity="0.42"/>
<circle cx="2.5" cy="278.5" r="2.5" fill="currentColor" fill-opacity="0.42"/>
<circle cx="27.5" cy="278.5" r="2.5" fill="currentColor" fill-opacity="0.42"/>
<circle cx="52.5" cy="278.5" r="2.5" fill="currentColor" fill-opacity="0.42"/>
<circle cx="77.5" cy="278.5" r="2.5" fill="currentColor" fill-opacity="0.42"/>
<circle cx="102.5" cy="278.5" r="2.5" fill="currentColor" fill-opacity="0.42"/>
<circle cx="127.5" cy="278.5" r="2.5" fill="currentColor" fill-opacity="0.42"/>
<circle cx="152.5" cy="278.5" r="2.5" fill="currentColor" fill-opacity="0.42"/>
<circle cx="177.5" cy="278.5" r="2.5" fill="currentColor" fill-opacity="0.42"/>
<circle cx="202.5" cy="278.5" r="2.5" fill="currentColor" fill-opacity="0.42"/>
<circle cx="227.5" cy="278.5" r="2.5" fill="currentColor" fill-opacity="0.42"/>
<circle cx="2.5" cy="303.5" r="2.5" fill="currentColor" fill-opacity="0.42"/>
<circle cx="27.5" cy="303.5" r="2.5" fill="currentColor" fill-opacity="0.42"/>
<circle cx="52.5" cy="303.5" r="2.5" fill="currentColor" fill-opacity="0.42"/>
<circle cx="77.5" cy="303.5" r="2.5" fill="currentColor" fill-opacity="0.42"/>
<circle cx="102.5" cy="303.5" r="2.5" fill="currentColor" fill-opacity="0.42"/>
<circle cx="127.5" cy="303.5" r="2.5" fill="currentColor" fill-opacity="0.42"/>
<circle cx="152.5" cy="303.5" r="2.5" fill="currentColor" fill-opacity="0.42"/>
<circle cx="177.5" cy="303.5" r="2.5" fill="currentColor" fill-opacity="0.42"/>
<circle cx="202.5" cy="303.5" r="2.5" fill="currentColor" fill-opacity="0.42"/>
<circle cx="227.5" cy="303.5" r="2.5" fill="currentColor" fill-opacity="0.42"/>
<circle cx="2.5" cy="328.5" r="2.5" fill="currentColor" fill-opacity="0.42"/>
<circle cx="27.5" cy="328.5" r="2.5" fill="currentColor" fill-opacity="0.42"/>
<circle cx="52.5" cy="328.5" r="2.5" fill="currentColor" fill-opacity="0.42"/>
<circle cx="77.5" cy="328.5" r="2.5" fill="currentColor" fill-opacity="0.42"/>
<circle cx="102.5" cy="328.5" r="2.5" fill="currentColor" fill-opacity="0.42"/>
<circle cx="127.5" cy="328.5" r="2.5" fill="currentColor" fill-opacity="0.42"/>
<circle cx="152.5" cy="328.5" r="2.5" fill="currentColor" fill-opacity="0.42"/>
<circle cx="177.5" cy="328.5" r="2.5" fill="currentColor" fill-opacity="0.42"/>
<circle cx="202.5" cy="328.5" r="2.5" fill="currentColor" fill-opacity="0.42"/>
<circle cx="227.5" cy="328.5" r="2.5" fill="currentColor" fill-opacity="0.42"/>
<circle cx="2.5" cy="353.5" r="2.5" fill="currentColor" fill-opacity="0.42"/>
<circle cx="27.5" cy="353.5" r="2.5" fill="currentColor" fill-opacity="0.42"/>
<circle cx="52.5" cy="353.5" r="2.5" fill="currentColor" fill-opacity="0.42"/>
<circle cx="77.5" cy="353.5" r="2.5" fill="currentColor" fill-opacity="0.42"/>
<circle cx="102.5" cy="353.5" r="2.5" fill="currentColor" fill-opacity="0.42"/>
<circle cx="127.5" cy="353.5" r="2.5" fill="currentColor" fill-opacity="0.42"/>
<circle cx="152.5" cy="353.5" r="2.5" fill="currentColor" fill-opacity="0.42"/>
<circle cx="177.5" cy="353.5" r="2.5" fill="currentColor" fill-opacity="0.42"/>
<circle cx="202.5" cy="353.5" r="2.5" fill="currentColor" fill-opacity="0.42"/>
<circle cx="227.5" cy="353.5" r="2.5" fill="currentColor" fill-opacity="0.42"/>
<circle cx="2.5" cy="378.5" r="2.5" fill="currentColor" fill-opacity="0.42"/>
<circle cx="27.5" cy="378.5" r="2.5" fill="currentColor" fill-opacity="0.42"/>
<circle cx="52.5" cy="378.5" r="2.5" fill="currentColor" fill-opacity="0.42"/>
<circle cx="77.5" cy="378.5" r="2.5" fill="currentColor" fill-opacity="0.42"/>
<circle cx="102.5" cy="378.5" r="2.5" fill="currentColor" fill-opacity="0.42"/>
<circle cx="127.5" cy="378.5" r="2.5" fill="currentColor" fill-opacity="0.42"/>
<circle cx="152.5" cy="378.5" r="2.5" fill="currentColor" fill-opacity="0.42"/>
<circle cx="177.5" cy="378.5" r="2.5" fill="currentColor" fill-opacity="0.42"/>
<circle cx="202.5" cy="378.5" r="2.5" fill="currentColor" fill-opacity="0.42"/>
<circle cx="227.5" cy="378.5" r="2.5" fill="currentColor" fill-opacity="0.42"/>
<circle cx="2.5" cy="403.5" r="2.5" fill="currentColor" fill-opacity="0.42"/>
<circle cx="27.5" cy="403.5" r="2.5" fill="currentColor" fill-opacity="0.42"/>
<circle cx="52.5" cy="403.5" r="2.5" fill="currentColor" fill-opacity="0.42"/>
<circle cx="77.5" cy="403.5" r="2.5" fill="currentColor" fill-opacity="0.42"/>
<circle cx="102.5" cy="403.5" r="2.5" fill="currentColor" fill-opacity="0.42"/>
<circle cx="127.5" cy="403.5" r="2.5" fill="currentColor" fill-opacity="0.42"/>
<circle cx="152.5" cy="403.5" r="2.5" fill="currentColor" fill-opacity="0.42"/>
<circle cx="177.5" cy="403.5" r="2.5" fill="currentColor" fill-opacity="0.42"/>
<circle cx="202.5" cy="403.5" r="2.5" fill="currentColor" fill-opacity="0.42"/>
<circle cx="227.5" cy="403.5" r="2.5" fill="currentColor" fill-opacity="0.42"/>
<circle cx="2.5" cy="428.5" r="2.5" fill="currentColor" fill-opacity="0.42"/>
<circle cx="27.5" cy="428.5" r="2.5" fill="currentColor" fill-opacity="0.42"/>
<circle cx="52.5" cy="428.5" r="2.5" fill="currentColor" fill-opacity="0.42"/>
<circle cx="77.5" cy="428.5" r="2.5" fill="currentColor" fill-opacity="0.42"/>
<circle cx="102.5" cy="428.5" r="2.5" fill="currentColor" fill-opacity="0.42"/>
<circle cx="127.5" cy="428.5" r="2.5" fill="currentColor" fill-opacity="0.42"/>
<circle cx="152.5" cy="428.5" r="2.5" fill="currentColor" fill-opacity="0.42"/>
<circle cx="177.5" cy="428.5" r="2.5" fill="currentColor" fill-opacity="0.42"/>
<circle cx="202.5" cy="428.5" r="2.5" fill="currentColor" fill-opacity="0.42"/>
<circle cx="227.5" cy="428.5" r="2.5" fill="currentColor" fill-opacity="0.42"/>
<circle cx="252.5" cy="254.5" r="2.5" fill="currentColor" fill-opacity="0.42"/>
<circle cx="277.5" cy="254.5" r="2.5" fill="currentColor" fill-opacity="0.42"/>
<circle cx="302.5" cy="254.5" r="2.5" fill="currentColor" fill-opacity="0.42"/>
<circle cx="327.5" cy="254.5" r="2.5" fill="currentColor" fill-opacity="0.42"/>
<circle cx="352.5" cy="254.5" r="2.5" fill="currentColor" fill-opacity="0.42"/>
<circle cx="377.5" cy="254.5" r="2.5" fill="currentColor" fill-opacity="0.42"/>
<circle cx="402.5" cy="254.5" r="2.5" fill="currentColor" fill-opacity="0.42"/>
<circle cx="427.5" cy="254.5" r="2.5" fill="currentColor" fill-opacity="0.42"/>
<circle cx="452.5" cy="254.5" r="2.5" fill="currentColor" fill-opacity="0.42"/>
<circle cx="477.5" cy="254.5" r="2.5" fill="currentColor" fill-opacity="0.42"/>
<circle cx="252.5" cy="279.5" r="2.5" fill="currentColor" fill-opacity="0.42"/>
<circle cx="277.5" cy="279.5" r="2.5" fill="currentColor" fill-opacity="0.42"/>
<circle cx="302.5" cy="279.5" r="2.5" fill="currentColor" fill-opacity="0.42"/>
<circle cx="327.5" cy="279.5" r="2.5" fill="currentColor" fill-opacity="0.42"/>
<circle cx="352.5" cy="279.5" r="2.5" fill="currentColor" fill-opacity="0.42"/>
<circle cx="377.5" cy="279.5" r="2.5" fill="currentColor" fill-opacity="0.42"/>
<circle cx="402.5" cy="279.5" r="2.5" fill="currentColor" fill-opacity="0.42"/>
<circle cx="427.5" cy="279.5" r="2.5" fill="currentColor" fill-opacity="0.42"/>
<circle cx="452.5" cy="279.5" r="2.5" fill="currentColor" fill-opacity="0.42"/>
<circle cx="477.5" cy="279.5" r="2.5" fill="currentColor" fill-opacity="0.42"/>
<circle cx="252.5" cy="304.5" r="2.5" fill="currentColor" fill-opacity="0.42"/>
<circle cx="277.5" cy="304.5" r="2.5" fill="currentColor" fill-opacity="0.42"/>
<circle cx="302.5" cy="304.5" r="2.5" fill="currentColor" fill-opacity="0.42"/>
<circle cx="327.5" cy="304.5" r="2.5" fill="currentColor" fill-opacity="0.42"/>
<circle cx="352.5" cy="304.5" r="2.5" fill="currentColor" fill-opacity="0.42"/>
<circle cx="377.5" cy="304.5" r="2.5" fill="currentColor" fill-opacity="0.42"/>
<circle cx="402.5" cy="304.5" r="2.5" fill="currentColor" fill-opacity="0.42"/>
<circle cx="427.5" cy="304.5" r="2.5" fill="currentColor" fill-opacity="0.42"/>
<circle cx="452.5" cy="304.5" r="2.5" fill="currentColor" fill-opacity="0.42"/>
<circle cx="477.5" cy="304.5" r="2.5" fill="currentColor" fill-opacity="0.42"/>
<circle cx="252.5" cy="329.5" r="2.5" fill="currentColor" fill-opacity="0.42"/>
<circle cx="277.5" cy="329.5" r="2.5" fill="currentColor" fill-opacity="0.42"/>
<circle cx="302.5" cy="329.5" r="2.5" fill="currentColor" fill-opacity="0.42"/>
<circle cx="327.5" cy="329.5" r="2.5" fill="currentColor" fill-opacity="0.42"/>
<circle cx="352.5" cy="329.5" r="2.5" fill="currentColor" fill-opacity="0.42"/>
<circle cx="377.5" cy="329.5" r="2.5" fill="currentColor" fill-opacity="0.42"/>
<circle cx="402.5" cy="329.5" r="2.5" fill="currentColor" fill-opacity="0.42"/>
<circle cx="427.5" cy="329.5" r="2.5" fill="currentColor" fill-opacity="0.42"/>
<circle cx="452.5" cy="329.5" r="2.5" fill="currentColor" fill-opacity="0.42"/>
<circle cx="477.5" cy="329.5" r="2.5" fill="currentColor" fill-opacity="0.42"/>
<circle cx="252.5" cy="354.5" r="2.5" fill="currentColor" fill-opacity="0.42"/>
<circle cx="277.5" cy="354.5" r="2.5" fill="currentColor" fill-opacity="0.42"/>
<circle cx="302.5" cy="354.5" r="2.5" fill="currentColor" fill-opacity="0.42"/>
<circle cx="327.5" cy="354.5" r="2.5" fill="currentColor" fill-opacity="0.42"/>
<circle cx="352.5" cy="354.5" r="2.5" fill="currentColor" fill-opacity="0.42"/>
<circle cx="377.5" cy="354.5" r="2.5" fill="currentColor" fill-opacity="0.42"/>
<circle cx="402.5" cy="354.5" r="2.5" fill="currentColor" fill-opacity="0.42"/>
<circle cx="427.5" cy="354.5" r="2.5" fill="currentColor" fill-opacity="0.42"/>
<circle cx="452.5" cy="354.5" r="2.5" fill="currentColor" fill-opacity="0.42"/>
<circle cx="477.5" cy="354.5" r="2.5" fill="currentColor" fill-opacity="0.42"/>
<circle cx="252.5" cy="379.5" r="2.5" fill="currentColor" fill-opacity="0.42"/>
<circle cx="277.5" cy="379.5" r="2.5" fill="currentColor" fill-opacity="0.42"/>
<circle cx="302.5" cy="379.5" r="2.5" fill="currentColor" fill-opacity="0.42"/>
<circle cx="327.5" cy="379.5" r="2.5" fill="currentColor" fill-opacity="0.42"/>
<circle cx="352.5" cy="379.5" r="2.5" fill="currentColor" fill-opacity="0.42"/>
<circle cx="377.5" cy="379.5" r="2.5" fill="currentColor" fill-opacity="0.42"/>
<circle cx="402.5" cy="379.5" r="2.5" fill="currentColor" fill-opacity="0.42"/>
<circle cx="427.5" cy="379.5" r="2.5" fill="currentColor" fill-opacity="0.42"/>
<circle cx="452.5" cy="379.5" r="2.5" fill="currentColor" fill-opacity="0.42"/>
<circle cx="477.5" cy="379.5" r="2.5" fill="currentColor" fill-opacity="0.42"/>
<circle cx="252.5" cy="404.5" r="2.5" fill="currentColor" fill-opacity="0.42"/>
<circle cx="277.5" cy="404.5" r="2.5" fill="currentColor" fill-opacity="0.42"/>
<circle cx="302.5" cy="404.5" r="2.5" fill="currentColor" fill-opacity="0.42"/>
<circle cx="327.5" cy="404.5" r="2.5" fill="currentColor" fill-opacity="0.42"/>
<circle cx="352.5" cy="404.5" r="2.5" fill="currentColor" fill-opacity="0.42"/>
<circle cx="377.5" cy="404.5" r="2.5" fill="currentColor" fill-opacity="0.42"/>
<circle cx="402.5" cy="404.5" r="2.5" fill="currentColor" fill-opacity="0.42"/>
<circle cx="427.5" cy="404.5" r="2.5" fill="currentColor" fill-opacity="0.42"/>
<circle cx="452.5" cy="404.5" r="2.5" fill="currentColor" fill-opacity="0.42"/>
<circle cx="477.5" cy="404.5" r="2.5" fill="currentColor" fill-opacity="0.42"/>
<circle cx="252.5" cy="429.5" r="2.5" fill="currentColor" fill-opacity="0.42"/>
<circle cx="277.5" cy="429.5" r="2.5" fill="currentColor" fill-opacity="0.42"/>
<circle cx="302.5" cy="429.5" r="2.5" fill="currentColor" fill-opacity="0.42"/>
<circle cx="327.5" cy="429.5" r="2.5" fill="currentColor" fill-opacity="0.42"/>
<circle cx="352.5" cy="429.5" r="2.5" fill="currentColor" fill-opacity="0.42"/>
<circle cx="377.5" cy="429.5" r="2.5" fill="currentColor" fill-opacity="0.42"/>
<circle cx="402.5" cy="429.5" r="2.5" fill="currentColor" fill-opacity="0.42"/>
<circle cx="427.5" cy="429.5" r="2.5" fill="currentColor" fill-opacity="0.42"/>
<circle cx="452.5" cy="429.5" r="2.5" fill="currentColor" fill-opacity="0.42"/>
<circle cx="477.5" cy="429.5" r="2.5" fill="currentColor" fill-opacity="0.42"/>
<circle cx="2.5" cy="2.5" r="2.5" fill="currentColor" fill-opacity="0.42"/>
<circle cx="27.5" cy="2.5" r="2.5" fill="currentColor" fill-opacity="0.42"/>
<circle cx="52.5" cy="2.5" r="2.5" fill="currentColor" fill-opacity="0.42"/>
<circle cx="77.5" cy="2.5" r="2.5" fill="currentColor" fill-opacity="0.42"/>
<circle cx="102.5" cy="2.5" r="2.5" fill="currentColor" fill-opacity="0.42"/>
<circle cx="127.5" cy="2.5" r="2.5" fill="currentColor" fill-opacity="0.42"/>
<circle cx="152.5" cy="2.5" r="2.5" fill="currentColor" fill-opacity="0.42"/>
<circle cx="177.5" cy="2.5" r="2.5" fill="currentColor" fill-opacity="0.42"/>
<circle cx="202.5" cy="2.5" r="2.5" fill="currentColor" fill-opacity="0.42"/>
<circle cx="227.5" cy="2.5" r="2.5" fill="currentColor" fill-opacity="0.42"/>
<circle cx="2.5" cy="27.5" r="2.5" fill="currentColor" fill-opacity="0.42"/>
<circle cx="27.5" cy="27.5" r="2.5" fill="currentColor" fill-opacity="0.42"/>
<circle cx="52.5" cy="27.5" r="2.5" fill="currentColor" fill-opacity="0.42"/>
<circle cx="77.5" cy="27.5" r="2.5" fill="currentColor" fill-opacity="0.42"/>
<circle cx="102.5" cy="27.5" r="2.5" fill="currentColor" fill-opacity="0.42"/>
<circle cx="127.5" cy="27.5" r="2.5" fill="currentColor" fill-opacity="0.42"/>
<circle cx="152.5" cy="27.5" r="2.5" fill="currentColor" fill-opacity="0.42"/>
<circle cx="177.5" cy="27.5" r="2.5" fill="currentColor" fill-opacity="0.42"/>
<circle cx="202.5" cy="27.5" r="2.5" fill="currentColor" fill-opacity="0.42"/>
<circle cx="227.5" cy="27.5" r="2.5" fill="currentColor" fill-opacity="0.42"/>
<circle cx="2.5" cy="52.5" r="2.5" fill="currentColor" fill-opacity="0.42"/>
<circle cx="27.5" cy="52.5" r="2.5" fill="currentColor" fill-opacity="0.42"/>
<circle cx="52.5" cy="52.5" r="2.5" fill="currentColor" fill-opacity="0.42"/>
<circle cx="77.5" cy="52.5" r="2.5" fill="currentColor" fill-opacity="0.42"/>
<circle cx="102.5" cy="52.5" r="2.5" fill="currentColor" fill-opacity="0.42"/>
<circle cx="127.5" cy="52.5" r="2.5" fill="currentColor" fill-opacity="0.42"/>
<circle cx="152.5" cy="52.5" r="2.5" fill="currentColor" fill-opacity="0.42"/>
<circle cx="177.5" cy="52.5" r="2.5" fill="currentColor" fill-opacity="0.42"/>
<circle cx="202.5" cy="52.5" r="2.5" fill="currentColor" fill-opacity="0.42"/>
<circle cx="227.5" cy="52.5" r="2.5" fill="currentColor" fill-opacity="0.42"/>
<circle cx="2.5" cy="77.5" r="2.5" fill="currentColor" fill-opacity="0.42"/>
<circle cx="27.5" cy="77.5" r="2.5" fill="currentColor" fill-opacity="0.42"/>
<circle cx="52.5" cy="77.5" r="2.5" fill="currentColor" fill-opacity="0.42"/>
<circle cx="77.5" cy="77.5" r="2.5" fill="currentColor" fill-opacity="0.42"/>
<circle cx="102.5" cy="77.5" r="2.5" fill="currentColor" fill-opacity="0.42"/>
<circle cx="127.5" cy="77.5" r="2.5" fill="currentColor" fill-opacity="0.42"/>
<circle cx="152.5" cy="77.5" r="2.5" fill="currentColor" fill-opacity="0.42"/>
<circle cx="177.5" cy="77.5" r="2.5" fill="currentColor" fill-opacity="0.42"/>
<circle cx="202.5" cy="77.5" r="2.5" fill="currentColor" fill-opacity="0.42"/>
<circle cx="227.5" cy="77.5" r="2.5" fill="currentColor" fill-opacity="0.42"/>
<circle cx="2.5" cy="102.5" r="2.5" fill="currentColor" fill-opacity="0.42"/>
<circle cx="27.5" cy="102.5" r="2.5" fill="currentColor" fill-opacity="0.42"/>
<circle cx="52.5" cy="102.5" r="2.5" fill="currentColor" fill-opacity="0.42"/>
<circle cx="77.5" cy="102.5" r="2.5" fill="currentColor" fill-opacity="0.42"/>
<circle cx="102.5" cy="102.5" r="2.5" fill="currentColor" fill-opacity="0.42"/>
<circle cx="127.5" cy="102.5" r="2.5" fill="currentColor" fill-opacity="0.42"/>
<circle cx="152.5" cy="102.5" r="2.5" fill="currentColor" fill-opacity="0.42"/>
<circle cx="177.5" cy="102.5" r="2.5" fill="currentColor" fill-opacity="0.42"/>
<circle cx="202.5" cy="102.5" r="2.5" fill="currentColor" fill-opacity="0.42"/>
<circle cx="227.5" cy="102.5" r="2.5" fill="currentColor" fill-opacity="0.42"/>
<circle cx="2.5" cy="127.5" r="2.5" fill="currentColor" fill-opacity="0.42"/>
<circle cx="27.5" cy="127.5" r="2.5" fill="currentColor" fill-opacity="0.42"/>
<circle cx="52.5" cy="127.5" r="2.5" fill="currentColor" fill-opacity="0.42"/>
<circle cx="77.5" cy="127.5" r="2.5" fill="currentColor" fill-opacity="0.42"/>
<circle cx="102.5" cy="127.5" r="2.5" fill="currentColor" fill-opacity="0.42"/>
<circle cx="127.5" cy="127.5" r="2.5" fill="currentColor" fill-opacity="0.42"/>
<circle cx="152.5" cy="127.5" r="2.5" fill="currentColor" fill-opacity="0.42"/>
<circle cx="177.5" cy="127.5" r="2.5" fill="currentColor" fill-opacity="0.42"/>
<circle cx="202.5" cy="127.5" r="2.5" fill="currentColor" fill-opacity="0.42"/>
<circle cx="227.5" cy="127.5" r="2.5" fill="currentColor" fill-opacity="0.42"/>
<circle cx="2.5" cy="152.5" r="2.5" fill="currentColor" fill-opacity="0.42"/>
<circle cx="27.5" cy="152.5" r="2.5" fill="currentColor" fill-opacity="0.42"/>
<circle cx="52.5" cy="152.5" r="2.5" fill="currentColor" fill-opacity="0.42"/>
<circle cx="77.5" cy="152.5" r="2.5" fill="currentColor" fill-opacity="0.42"/>
<circle cx="102.5" cy="152.5" r="2.5" fill="currentColor" fill-opacity="0.42"/>
<circle cx="127.5" cy="152.5" r="2.5" fill="currentColor" fill-opacity="0.42"/>
<circle cx="152.5" cy="152.5" r="2.5" fill="currentColor" fill-opacity="0.42"/>
<circle cx="177.5" cy="152.5" r="2.5" fill="currentColor" fill-opacity="0.42"/>
<circle cx="202.5" cy="152.5" r="2.5" fill="currentColor" fill-opacity="0.42"/>
<circle cx="227.5" cy="152.5" r="2.5" fill="currentColor" fill-opacity="0.42"/>
<circle cx="2.5" cy="177.5" r="2.5" fill="currentColor" fill-opacity="0.42"/>
<circle cx="27.5" cy="177.5" r="2.5" fill="currentColor" fill-opacity="0.42"/>
<circle cx="52.5" cy="177.5" r="2.5" fill="currentColor" fill-opacity="0.42"/>
<circle cx="77.5" cy="177.5" r="2.5" fill="currentColor" fill-opacity="0.42"/>
<circle cx="102.5" cy="177.5" r="2.5" fill="currentColor" fill-opacity="0.42"/>
<circle cx="127.5" cy="177.5" r="2.5" fill="currentColor" fill-opacity="0.42"/>
<circle cx="152.5" cy="177.5" r="2.5" fill="currentColor" fill-opacity="0.42"/>
<circle cx="177.5" cy="177.5" r="2.5" fill="currentColor" fill-opacity="0.42"/>
<circle cx="202.5" cy="177.5" r="2.5" fill="currentColor" fill-opacity="0.42"/>
<circle cx="227.5" cy="177.5" r="2.5" fill="currentColor" fill-opacity="0.42"/>
<circle cx="2.5" cy="202.5" r="2.5" fill="currentColor" fill-opacity="0.42"/>
<circle cx="27.5" cy="202.5" r="2.5" fill="currentColor" fill-opacity="0.42"/>
<circle cx="52.5" cy="202.5" r="2.5" fill="currentColor" fill-opacity="0.42"/>
<circle cx="77.5" cy="202.5" r="2.5" fill="currentColor" fill-opacity="0.42"/>
<circle cx="102.5" cy="202.5" r="2.5" fill="currentColor" fill-opacity="0.42"/>
<circle cx="127.5" cy="202.5" r="2.5" fill="currentColor" fill-opacity="0.42"/>
<circle cx="152.5" cy="202.5" r="2.5" fill="currentColor" fill-opacity="0.42"/>
<circle cx="177.5" cy="202.5" r="2.5" fill="currentColor" fill-opacity="0.42"/>
<circle cx="202.5" cy="202.5" r="2.5" fill="currentColor" fill-opacity="0.42"/>
<circle cx="227.5" cy="202.5" r="2.5" fill="currentColor" fill-opacity="0.42"/>
<circle cx="2.5" cy="227.5" r="2.5" fill="currentColor" fill-opacity="0.42"/>
<circle cx="27.5" cy="227.5" r="2.5" fill="currentColor" fill-opacity="0.42"/>
<circle cx="52.5" cy="227.5" r="2.5" fill="currentColor" fill-opacity="0.42"/>
<circle cx="77.5" cy="227.5" r="2.5" fill="currentColor" fill-opacity="0.42"/>
<circle cx="102.5" cy="227.5" r="2.5" fill="currentColor" fill-opacity="0.42"/>
<circle cx="127.5" cy="227.5" r="2.5" fill="currentColor" fill-opacity="0.42"/>
<circle cx="152.5" cy="227.5" r="2.5" fill="currentColor" fill-opacity="0.42"/>
<circle cx="177.5" cy="227.5" r="2.5" fill="currentColor" fill-opacity="0.42"/>
<circle cx="202.5" cy="227.5" r="2.5" fill="currentColor" fill-opacity="0.42"/>
<circle cx="227.5" cy="227.5" r="2.5" fill="currentColor" fill-opacity="0.42"/>
<circle cx="252.5" cy="2.5" r="2.5" fill="currentColor" fill-opacity="0.42"/>
<circle cx="277.5" cy="2.5" r="2.5" fill="currentColor" fill-opacity="0.42"/>
<circle cx="302.5" cy="2.5" r="2.5" fill="currentColor" fill-opacity="0.42"/>
<circle cx="327.5" cy="2.5" r="2.5" fill="currentColor" fill-opacity="0.42"/>
<circle cx="352.5" cy="2.5" r="2.5" fill="currentColor" fill-opacity="0.42"/>
<circle cx="377.5" cy="2.5" r="2.5" fill="currentColor" fill-opacity="0.42"/>
<circle cx="402.5" cy="2.5" r="2.5" fill="currentColor" fill-opacity="0.42"/>
<circle cx="427.5" cy="2.5" r="2.5" fill="currentColor" fill-opacity="0.42"/>
<circle cx="452.5" cy="2.5" r="2.5" fill="currentColor" fill-opacity="0.42"/>
<circle cx="477.5" cy="2.5" r="2.5" fill="currentColor" fill-opacity="0.42"/>
<circle cx="252.5" cy="27.5" r="2.5" fill="currentColor" fill-opacity="0.42"/>
<circle cx="277.5" cy="27.5" r="2.5" fill="currentColor" fill-opacity="0.42"/>
<circle cx="302.5" cy="27.5" r="2.5" fill="currentColor" fill-opacity="0.42"/>
<circle cx="327.5" cy="27.5" r="2.5" fill="currentColor" fill-opacity="0.42"/>
<circle cx="352.5" cy="27.5" r="2.5" fill="currentColor" fill-opacity="0.42"/>
<circle cx="377.5" cy="27.5" r="2.5" fill="currentColor" fill-opacity="0.42"/>
<circle cx="402.5" cy="27.5" r="2.5" fill="currentColor" fill-opacity="0.42"/>
<circle cx="427.5" cy="27.5" r="2.5" fill="currentColor" fill-opacity="0.42"/>
<circle cx="452.5" cy="27.5" r="2.5" fill="currentColor" fill-opacity="0.42"/>
<circle cx="477.5" cy="27.5" r="2.5" fill="currentColor" fill-opacity="0.42"/>
<circle cx="252.5" cy="52.5" r="2.5" fill="currentColor" fill-opacity="0.42"/>
<circle cx="277.5" cy="52.5" r="2.5" fill="currentColor" fill-opacity="0.42"/>
<circle cx="302.5" cy="52.5" r="2.5" fill="currentColor" fill-opacity="0.42"/>
<circle cx="327.5" cy="52.5" r="2.5" fill="currentColor" fill-opacity="0.42"/>
<circle cx="352.5" cy="52.5" r="2.5" fill="currentColor" fill-opacity="0.42"/>
<circle cx="377.5" cy="52.5" r="2.5" fill="currentColor" fill-opacity="0.42"/>
<circle cx="402.5" cy="52.5" r="2.5" fill="currentColor" fill-opacity="0.42"/>
<circle cx="427.5" cy="52.5" r="2.5" fill="currentColor" fill-opacity="0.42"/>
<circle cx="452.5" cy="52.5" r="2.5" fill="currentColor" fill-opacity="0.42"/>
<circle cx="477.5" cy="52.5" r="2.5" fill="currentColor" fill-opacity="0.42"/>
<circle cx="252.5" cy="77.5" r="2.5" fill="currentColor" fill-opacity="0.42"/>
<circle cx="277.5" cy="77.5" r="2.5" fill="currentColor" fill-opacity="0.42"/>
<circle cx="302.5" cy="77.5" r="2.5" fill="currentColor" fill-opacity="0.42"/>
<circle cx="327.5" cy="77.5" r="2.5" fill="currentColor" fill-opacity="0.42"/>
<circle cx="352.5" cy="77.5" r="2.5" fill="currentColor" fill-opacity="0.42"/>
<circle cx="377.5" cy="77.5" r="2.5" fill="currentColor" fill-opacity="0.42"/>
<circle cx="402.5" cy="77.5" r="2.5" fill="currentColor" fill-opacity="0.42"/>
<circle cx="427.5" cy="77.5" r="2.5" fill="currentColor" fill-opacity="0.42"/>
<circle cx="452.5" cy="77.5" r="2.5" fill="currentColor" fill-opacity="0.42"/>
<circle cx="477.5" cy="77.5" r="2.5" fill="currentColor" fill-opacity="0.42"/>
<circle cx="252.5" cy="102.5" r="2.5" fill="currentColor" fill-opacity="0.42"/>
<circle cx="277.5" cy="102.5" r="2.5" fill="currentColor" fill-opacity="0.42"/>
<circle cx="302.5" cy="102.5" r="2.5" fill="currentColor" fill-opacity="0.42"/>
<circle cx="327.5" cy="102.5" r="2.5" fill="currentColor" fill-opacity="0.42"/>
<circle cx="352.5" cy="102.5" r="2.5" fill="currentColor" fill-opacity="0.42"/>
<circle cx="377.5" cy="102.5" r="2.5" fill="currentColor" fill-opacity="0.42"/>
<circle cx="402.5" cy="102.5" r="2.5" fill="currentColor" fill-opacity="0.42"/>
<circle cx="427.5" cy="102.5" r="2.5" fill="currentColor" fill-opacity="0.42"/>
<circle cx="452.5" cy="102.5" r="2.5" fill="currentColor" fill-opacity="0.42"/>
<circle cx="477.5" cy="102.5" r="2.5" fill="currentColor" fill-opacity="0.42"/>
<circle cx="252.5" cy="127.5" r="2.5" fill="currentColor" fill-opacity="0.42"/>
<circle cx="277.5" cy="127.5" r="2.5" fill="currentColor" fill-opacity="0.42"/>
<circle cx="302.5" cy="127.5" r="2.5" fill="currentColor" fill-opacity="0.42"/>
<circle cx="327.5" cy="127.5" r="2.5" fill="currentColor" fill-opacity="0.42"/>
<circle cx="352.5" cy="127.5" r="2.5" fill="currentColor" fill-opacity="0.42"/>
<circle cx="377.5" cy="127.5" r="2.5" fill="currentColor" fill-opacity="0.42"/>
<circle cx="402.5" cy="127.5" r="2.5" fill="currentColor" fill-opacity="0.42"/>
<circle cx="427.5" cy="127.5" r="2.5" fill="currentColor" fill-opacity="0.42"/>
<circle cx="452.5" cy="127.5" r="2.5" fill="currentColor" fill-opacity="0.42"/>
<circle cx="477.5" cy="127.5" r="2.5" fill="currentColor" fill-opacity="0.42"/>
<circle cx="252.5" cy="152.5" r="2.5" fill="currentColor" fill-opacity="0.42"/>
<circle cx="277.5" cy="152.5" r="2.5" fill="currentColor" fill-opacity="0.42"/>
<circle cx="302.5" cy="152.5" r="2.5" fill="currentColor" fill-opacity="0.42"/>
<circle cx="327.5" cy="152.5" r="2.5" fill="currentColor" fill-opacity="0.42"/>
<circle cx="352.5" cy="152.5" r="2.5" fill="currentColor" fill-opacity="0.42"/>
<circle cx="377.5" cy="152.5" r="2.5" fill="currentColor" fill-opacity="0.42"/>
<circle cx="402.5" cy="152.5" r="2.5" fill="currentColor" fill-opacity="0.42"/>
<circle cx="427.5" cy="152.5" r="2.5" fill="currentColor" fill-opacity="0.42"/>
<circle cx="452.5" cy="152.5" r="2.5" fill="currentColor" fill-opacity="0.42"/>
<circle cx="477.5" cy="152.5" r="2.5" fill="currentColor" fill-opacity="0.42"/>
<circle cx="252.5" cy="177.5" r="2.5" fill="currentColor" fill-opacity="0.42"/>
<circle cx="277.5" cy="177.5" r="2.5" fill="currentColor" fill-opacity="0.42"/>
<circle cx="302.5" cy="177.5" r="2.5" fill="currentColor" fill-opacity="0.42"/>
<circle cx="327.5" cy="177.5" r="2.5" fill="currentColor" fill-opacity="0.42"/>
<circle cx="352.5" cy="177.5" r="2.5" fill="currentColor" fill-opacity="0.42"/>
<circle cx="377.5" cy="177.5" r="2.5" fill="currentColor" fill-opacity="0.42"/>
<circle cx="402.5" cy="177.5" r="2.5" fill="currentColor" fill-opacity="0.42"/>
<circle cx="427.5" cy="177.5" r="2.5" fill="currentColor" fill-opacity="0.42"/>
<circle cx="452.5" cy="177.5" r="2.5" fill="currentColor" fill-opacity="0.42"/>
<circle cx="477.5" cy="177.5" r="2.5" fill="currentColor" fill-opacity="0.42"/>
<circle cx="252.5" cy="202.5" r="2.5" fill="currentColor" fill-opacity="0.42"/>
<circle cx="277.5" cy="202.5" r="2.5" fill="currentColor" fill-opacity="0.42"/>
<circle cx="302.5" cy="202.5" r="2.5" fill="currentColor" fill-opacity="0.42"/>
<circle cx="327.5" cy="202.5" r="2.5" fill="currentColor" fill-opacity="0.42"/>
<circle cx="352.5" cy="202.5" r="2.5" fill="currentColor" fill-opacity="0.42"/>
<circle cx="377.5" cy="202.5" r="2.5" fill="currentColor" fill-opacity="0.42"/>
<circle cx="402.5" cy="202.5" r="2.5" fill="currentColor" fill-opacity="0.42"/>
<circle cx="427.5" cy="202.5" r="2.5" fill="currentColor" fill-opacity="0.42"/>
<circle cx="452.5" cy="202.5" r="2.5" fill="currentColor" fill-opacity="0.42"/>
<circle cx="477.5" cy="202.5" r="2.5" fill="currentColor" fill-opacity="0.42"/>
<circle cx="252.5" cy="227.5" r="2.5" fill="currentColor" fill-opacity="0.42"/>
<circle cx="277.5" cy="227.5" r="2.5" fill="currentColor" fill-opacity="0.42"/>
<circle cx="302.5" cy="227.5" r="2.5" fill="currentColor" fill-opacity="0.42"/>
<circle cx="327.5" cy="227.5" r="2.5" fill="currentColor" fill-opacity="0.42"/>
<circle cx="352.5" cy="227.5" r="2.5" fill="currentColor" fill-opacity="0.42"/>
<circle cx="377.5" cy="227.5" r="2.5" fill="currentColor" fill-opacity="0.42"/>
<circle cx="402.5" cy="227.5" r="2.5" fill="currentColor" fill-opacity="0.42"/>
<circle cx="427.5" cy="227.5" r="2.5" fill="currentColor" fill-opacity="0.42"/>
<circle cx="452.5" cy="227.5" r="2.5" fill="currentColor" fill-opacity="0.42"/>
<circle cx="477.5" cy="227.5" r="2.5" fill="currentColor" fill-opacity="0.42"/>
</svg>
